<mxfile host="65bd71144e">
    <diagram id="OIq1s8vDRUgdQ-raxYiW" name="Page-1">
        <mxGraphModel dx="4349" dy="3607" grid="0" gridSize="10" guides="1" tooltips="1" connect="1" arrows="1" fold="1" page="0" pageScale="1" pageWidth="827" pageHeight="1169" math="0" shadow="0">
            <root>
                <mxCell id="0"/>
                <mxCell id="1" parent="0"/>
                <mxCell id="q-2chvohRWL-nbTxDOE--1" value="users" style="shape=table;startSize=30;container=1;collapsible=1;childLayout=tableLayout;fixedRows=1;rowLines=0;fontStyle=1;align=center;resizeLast=1;direction=east;rounded=1;" parent="1" vertex="1">
                    <mxGeometry x="-1897" y="-1583" width="220" height="300" as="geometry"/>
                </mxCell>
                <mxCell id="q-2chvohRWL-nbTxDOE--2" value="" style="shape=tableRow;horizontal=0;startSize=0;swimlaneHead=0;swimlaneBody=0;fillColor=none;collapsible=0;dropTarget=0;points=[[0,0.5],[1,0.5]];portConstraint=eastwest;top=0;left=0;right=0;bottom=1;" parent="q-2chvohRWL-nbTxDOE--1" vertex="1">
                    <mxGeometry y="30" width="220" height="30" as="geometry"/>
                </mxCell>
                <mxCell id="q-2chvohRWL-nbTxDOE--3" value="PK" style="shape=partialRectangle;connectable=0;fillColor=none;top=0;left=0;bottom=0;right=0;fontStyle=1;overflow=hidden;" parent="q-2chvohRWL-nbTxDOE--2" vertex="1">
                    <mxGeometry width="30" height="30" as="geometry">
                        <mxRectangle width="30" height="30" as="alternateBounds"/>
                    </mxGeometry>
                </mxCell>
                <mxCell id="q-2chvohRWL-nbTxDOE--4" value="id" style="shape=partialRectangle;connectable=0;fillColor=none;top=0;left=0;bottom=0;right=0;align=left;spacingLeft=6;fontStyle=5;overflow=hidden;" parent="q-2chvohRWL-nbTxDOE--2" vertex="1">
                    <mxGeometry x="30" width="190" height="30" as="geometry">
                        <mxRectangle width="190" height="30" as="alternateBounds"/>
                    </mxGeometry>
                </mxCell>
                <mxCell id="q-2chvohRWL-nbTxDOE--5" value="" style="shape=tableRow;horizontal=0;startSize=0;swimlaneHead=0;swimlaneBody=0;fillColor=none;collapsible=0;dropTarget=0;points=[[0,0.5],[1,0.5]];portConstraint=eastwest;top=0;left=0;right=0;bottom=0;" parent="q-2chvohRWL-nbTxDOE--1" vertex="1">
                    <mxGeometry y="60" width="220" height="30" as="geometry"/>
                </mxCell>
                <mxCell id="q-2chvohRWL-nbTxDOE--6" value="" style="shape=partialRectangle;connectable=0;fillColor=none;top=0;left=0;bottom=0;right=0;editable=1;overflow=hidden;" parent="q-2chvohRWL-nbTxDOE--5" vertex="1">
                    <mxGeometry width="30" height="30" as="geometry">
                        <mxRectangle width="30" height="30" as="alternateBounds"/>
                    </mxGeometry>
                </mxCell>
                <mxCell id="q-2chvohRWL-nbTxDOE--7" value="firstname" style="shape=partialRectangle;connectable=0;fillColor=none;top=0;left=0;bottom=0;right=0;align=left;spacingLeft=6;overflow=hidden;" parent="q-2chvohRWL-nbTxDOE--5" vertex="1">
                    <mxGeometry x="30" width="190" height="30" as="geometry">
                        <mxRectangle width="190" height="30" as="alternateBounds"/>
                    </mxGeometry>
                </mxCell>
                <mxCell id="q-2chvohRWL-nbTxDOE--8" value="" style="shape=tableRow;horizontal=0;startSize=0;swimlaneHead=0;swimlaneBody=0;fillColor=none;collapsible=0;dropTarget=0;points=[[0,0.5],[1,0.5]];portConstraint=eastwest;top=0;left=0;right=0;bottom=0;" parent="q-2chvohRWL-nbTxDOE--1" vertex="1">
                    <mxGeometry y="90" width="220" height="30" as="geometry"/>
                </mxCell>
                <mxCell id="q-2chvohRWL-nbTxDOE--9" value="" style="shape=partialRectangle;connectable=0;fillColor=none;top=0;left=0;bottom=0;right=0;editable=1;overflow=hidden;" parent="q-2chvohRWL-nbTxDOE--8" vertex="1">
                    <mxGeometry width="30" height="30" as="geometry">
                        <mxRectangle width="30" height="30" as="alternateBounds"/>
                    </mxGeometry>
                </mxCell>
                <mxCell id="q-2chvohRWL-nbTxDOE--10" value="second name" style="shape=partialRectangle;connectable=0;fillColor=none;top=0;left=0;bottom=0;right=0;align=left;spacingLeft=6;overflow=hidden;" parent="q-2chvohRWL-nbTxDOE--8" vertex="1">
                    <mxGeometry x="30" width="190" height="30" as="geometry">
                        <mxRectangle width="190" height="30" as="alternateBounds"/>
                    </mxGeometry>
                </mxCell>
                <mxCell id="q-2chvohRWL-nbTxDOE--11" value="" style="shape=tableRow;horizontal=0;startSize=0;swimlaneHead=0;swimlaneBody=0;fillColor=none;collapsible=0;dropTarget=0;points=[[0,0.5],[1,0.5]];portConstraint=eastwest;top=0;left=0;right=0;bottom=0;" parent="q-2chvohRWL-nbTxDOE--1" vertex="1">
                    <mxGeometry y="120" width="220" height="30" as="geometry"/>
                </mxCell>
                <mxCell id="q-2chvohRWL-nbTxDOE--12" value="" style="shape=partialRectangle;connectable=0;fillColor=none;top=0;left=0;bottom=0;right=0;editable=1;overflow=hidden;" parent="q-2chvohRWL-nbTxDOE--11" vertex="1">
                    <mxGeometry width="30" height="30" as="geometry">
                        <mxRectangle width="30" height="30" as="alternateBounds"/>
                    </mxGeometry>
                </mxCell>
                <mxCell id="q-2chvohRWL-nbTxDOE--13" value="password" style="shape=partialRectangle;connectable=0;fillColor=none;top=0;left=0;bottom=0;right=0;align=left;spacingLeft=6;overflow=hidden;" parent="q-2chvohRWL-nbTxDOE--11" vertex="1">
                    <mxGeometry x="30" width="190" height="30" as="geometry">
                        <mxRectangle width="190" height="30" as="alternateBounds"/>
                    </mxGeometry>
                </mxCell>
                <mxCell id="q-2chvohRWL-nbTxDOE--14" value="" style="shape=tableRow;horizontal=0;startSize=0;swimlaneHead=0;swimlaneBody=0;fillColor=none;collapsible=0;dropTarget=0;points=[[0,0.5],[1,0.5]];portConstraint=eastwest;top=0;left=0;right=0;bottom=0;" parent="q-2chvohRWL-nbTxDOE--1" vertex="1">
                    <mxGeometry y="150" width="220" height="30" as="geometry"/>
                </mxCell>
                <mxCell id="q-2chvohRWL-nbTxDOE--15" value="" style="shape=partialRectangle;connectable=0;fillColor=none;top=0;left=0;bottom=0;right=0;editable=1;overflow=hidden;" parent="q-2chvohRWL-nbTxDOE--14" vertex="1">
                    <mxGeometry width="30" height="30" as="geometry">
                        <mxRectangle width="30" height="30" as="alternateBounds"/>
                    </mxGeometry>
                </mxCell>
                <mxCell id="q-2chvohRWL-nbTxDOE--16" value="email" style="shape=partialRectangle;connectable=0;fillColor=none;top=0;left=0;bottom=0;right=0;align=left;spacingLeft=6;overflow=hidden;" parent="q-2chvohRWL-nbTxDOE--14" vertex="1">
                    <mxGeometry x="30" width="190" height="30" as="geometry">
                        <mxRectangle width="190" height="30" as="alternateBounds"/>
                    </mxGeometry>
                </mxCell>
                <mxCell id="q-2chvohRWL-nbTxDOE--17" value="" style="shape=tableRow;horizontal=0;startSize=0;swimlaneHead=0;swimlaneBody=0;fillColor=none;collapsible=0;dropTarget=0;points=[[0,0.5],[1,0.5]];portConstraint=eastwest;top=0;left=0;right=0;bottom=0;" parent="q-2chvohRWL-nbTxDOE--1" vertex="1">
                    <mxGeometry y="180" width="220" height="30" as="geometry"/>
                </mxCell>
                <mxCell id="q-2chvohRWL-nbTxDOE--18" value="" style="shape=partialRectangle;connectable=0;fillColor=none;top=0;left=0;bottom=0;right=0;editable=1;overflow=hidden;" parent="q-2chvohRWL-nbTxDOE--17" vertex="1">
                    <mxGeometry width="30" height="30" as="geometry">
                        <mxRectangle width="30" height="30" as="alternateBounds"/>
                    </mxGeometry>
                </mxCell>
                <mxCell id="q-2chvohRWL-nbTxDOE--19" value="loclisation" style="shape=partialRectangle;connectable=0;fillColor=none;top=0;left=0;bottom=0;right=0;align=left;spacingLeft=6;overflow=hidden;" parent="q-2chvohRWL-nbTxDOE--17" vertex="1">
                    <mxGeometry x="30" width="190" height="30" as="geometry">
                        <mxRectangle width="190" height="30" as="alternateBounds"/>
                    </mxGeometry>
                </mxCell>
                <mxCell id="q-2chvohRWL-nbTxDOE--20" value="" style="shape=tableRow;horizontal=0;startSize=0;swimlaneHead=0;swimlaneBody=0;fillColor=none;collapsible=0;dropTarget=0;points=[[0,0.5],[1,0.5]];portConstraint=eastwest;top=0;left=0;right=0;bottom=0;" parent="q-2chvohRWL-nbTxDOE--1" vertex="1">
                    <mxGeometry y="210" width="220" height="30" as="geometry"/>
                </mxCell>
                <mxCell id="q-2chvohRWL-nbTxDOE--21" value="" style="shape=partialRectangle;connectable=0;fillColor=none;top=0;left=0;bottom=0;right=0;editable=1;overflow=hidden;" parent="q-2chvohRWL-nbTxDOE--20" vertex="1">
                    <mxGeometry width="30" height="30" as="geometry">
                        <mxRectangle width="30" height="30" as="alternateBounds"/>
                    </mxGeometry>
                </mxCell>
                <mxCell id="q-2chvohRWL-nbTxDOE--22" value="status" style="shape=partialRectangle;connectable=0;fillColor=none;top=0;left=0;bottom=0;right=0;align=left;spacingLeft=6;overflow=hidden;" parent="q-2chvohRWL-nbTxDOE--20" vertex="1">
                    <mxGeometry x="30" width="190" height="30" as="geometry">
                        <mxRectangle width="190" height="30" as="alternateBounds"/>
                    </mxGeometry>
                </mxCell>
                <mxCell id="q-2chvohRWL-nbTxDOE--23" value="" style="shape=tableRow;horizontal=0;startSize=0;swimlaneHead=0;swimlaneBody=0;fillColor=none;collapsible=0;dropTarget=0;points=[[0,0.5],[1,0.5]];portConstraint=eastwest;top=0;left=0;right=0;bottom=0;" parent="q-2chvohRWL-nbTxDOE--1" vertex="1">
                    <mxGeometry y="240" width="220" height="30" as="geometry"/>
                </mxCell>
                <mxCell id="q-2chvohRWL-nbTxDOE--24" value="" style="shape=partialRectangle;connectable=0;fillColor=none;top=0;left=0;bottom=0;right=0;editable=1;overflow=hidden;" parent="q-2chvohRWL-nbTxDOE--23" vertex="1">
                    <mxGeometry width="30" height="30" as="geometry">
                        <mxRectangle width="30" height="30" as="alternateBounds"/>
                    </mxGeometry>
                </mxCell>
                <mxCell id="q-2chvohRWL-nbTxDOE--25" value="profilePic" style="shape=partialRectangle;connectable=0;fillColor=none;top=0;left=0;bottom=0;right=0;align=left;spacingLeft=6;overflow=hidden;" parent="q-2chvohRWL-nbTxDOE--23" vertex="1">
                    <mxGeometry x="30" width="190" height="30" as="geometry">
                        <mxRectangle width="190" height="30" as="alternateBounds"/>
                    </mxGeometry>
                </mxCell>
                <mxCell id="q-2chvohRWL-nbTxDOE--26" value="" style="shape=tableRow;horizontal=0;startSize=0;swimlaneHead=0;swimlaneBody=0;fillColor=none;collapsible=0;dropTarget=0;points=[[0,0.5],[1,0.5]];portConstraint=eastwest;top=0;left=0;right=0;bottom=0;" parent="q-2chvohRWL-nbTxDOE--1" vertex="1">
                    <mxGeometry y="270" width="220" height="30" as="geometry"/>
                </mxCell>
                <mxCell id="q-2chvohRWL-nbTxDOE--27" value="" style="shape=partialRectangle;connectable=0;fillColor=none;top=0;left=0;bottom=0;right=0;editable=1;overflow=hidden;" parent="q-2chvohRWL-nbTxDOE--26" vertex="1">
                    <mxGeometry width="30" height="30" as="geometry">
                        <mxRectangle width="30" height="30" as="alternateBounds"/>
                    </mxGeometry>
                </mxCell>
                <mxCell id="q-2chvohRWL-nbTxDOE--28" value="promotion" style="shape=partialRectangle;connectable=0;fillColor=none;top=0;left=0;bottom=0;right=0;align=left;spacingLeft=6;overflow=hidden;" parent="q-2chvohRWL-nbTxDOE--26" vertex="1">
                    <mxGeometry x="30" width="190" height="30" as="geometry">
                        <mxRectangle width="190" height="30" as="alternateBounds"/>
                    </mxGeometry>
                </mxCell>
                <mxCell id="q-2chvohRWL-nbTxDOE--29" value="events" style="shape=table;startSize=30;container=1;collapsible=1;childLayout=tableLayout;fixedRows=1;rowLines=0;fontStyle=1;align=center;resizeLast=1;direction=east;rounded=1;" parent="1" vertex="1">
                    <mxGeometry x="-980" y="-1615" width="280" height="390" as="geometry"/>
                </mxCell>
                <mxCell id="q-2chvohRWL-nbTxDOE--30" value="" style="shape=tableRow;horizontal=0;startSize=0;swimlaneHead=0;swimlaneBody=0;fillColor=none;collapsible=0;dropTarget=0;points=[[0,0.5],[1,0.5]];portConstraint=eastwest;top=0;left=0;right=0;bottom=1;" parent="q-2chvohRWL-nbTxDOE--29" vertex="1">
                    <mxGeometry y="30" width="280" height="30" as="geometry"/>
                </mxCell>
                <mxCell id="q-2chvohRWL-nbTxDOE--31" value="PK" style="shape=partialRectangle;connectable=0;fillColor=none;top=0;left=0;bottom=0;right=0;fontStyle=1;overflow=hidden;" parent="q-2chvohRWL-nbTxDOE--30" vertex="1">
                    <mxGeometry width="30" height="30" as="geometry">
                        <mxRectangle width="30" height="30" as="alternateBounds"/>
                    </mxGeometry>
                </mxCell>
                <mxCell id="q-2chvohRWL-nbTxDOE--32" value="id" style="shape=partialRectangle;connectable=0;fillColor=none;top=0;left=0;bottom=0;right=0;align=left;spacingLeft=6;fontStyle=5;overflow=hidden;" parent="q-2chvohRWL-nbTxDOE--30" vertex="1">
                    <mxGeometry x="30" width="250" height="30" as="geometry">
                        <mxRectangle width="250" height="30" as="alternateBounds"/>
                    </mxGeometry>
                </mxCell>
                <mxCell id="q-2chvohRWL-nbTxDOE--33" value="" style="shape=tableRow;horizontal=0;startSize=0;swimlaneHead=0;swimlaneBody=0;fillColor=none;collapsible=0;dropTarget=0;points=[[0,0.5],[1,0.5]];portConstraint=eastwest;top=0;left=0;right=0;bottom=0;" parent="q-2chvohRWL-nbTxDOE--29" vertex="1">
                    <mxGeometry y="60" width="280" height="30" as="geometry"/>
                </mxCell>
                <mxCell id="q-2chvohRWL-nbTxDOE--34" value="FK" style="shape=partialRectangle;connectable=0;fillColor=none;top=0;left=0;bottom=0;right=0;editable=1;overflow=hidden;" parent="q-2chvohRWL-nbTxDOE--33" vertex="1">
                    <mxGeometry width="30" height="30" as="geometry">
                        <mxRectangle width="30" height="30" as="alternateBounds"/>
                    </mxGeometry>
                </mxCell>
                <mxCell id="q-2chvohRWL-nbTxDOE--35" value="authorId" style="shape=partialRectangle;connectable=0;fillColor=none;top=0;left=0;bottom=0;right=0;align=left;spacingLeft=6;overflow=hidden;" parent="q-2chvohRWL-nbTxDOE--33" vertex="1">
                    <mxGeometry x="30" width="250" height="30" as="geometry">
                        <mxRectangle width="250" height="30" as="alternateBounds"/>
                    </mxGeometry>
                </mxCell>
                <mxCell id="q-2chvohRWL-nbTxDOE--36" value="" style="shape=tableRow;horizontal=0;startSize=0;swimlaneHead=0;swimlaneBody=0;fillColor=none;collapsible=0;dropTarget=0;points=[[0,0.5],[1,0.5]];portConstraint=eastwest;top=0;left=0;right=0;bottom=0;" parent="q-2chvohRWL-nbTxDOE--29" vertex="1">
                    <mxGeometry y="90" width="280" height="30" as="geometry"/>
                </mxCell>
                <mxCell id="q-2chvohRWL-nbTxDOE--37" value="" style="shape=partialRectangle;connectable=0;fillColor=none;top=0;left=0;bottom=0;right=0;editable=1;overflow=hidden;" parent="q-2chvohRWL-nbTxDOE--36" vertex="1">
                    <mxGeometry width="30" height="30" as="geometry">
                        <mxRectangle width="30" height="30" as="alternateBounds"/>
                    </mxGeometry>
                </mxCell>
                <mxCell id="q-2chvohRWL-nbTxDOE--38" value="name" style="shape=partialRectangle;connectable=0;fillColor=none;top=0;left=0;bottom=0;right=0;align=left;spacingLeft=6;overflow=hidden;" parent="q-2chvohRWL-nbTxDOE--36" vertex="1">
                    <mxGeometry x="30" width="250" height="30" as="geometry">
                        <mxRectangle width="250" height="30" as="alternateBounds"/>
                    </mxGeometry>
                </mxCell>
                <mxCell id="q-2chvohRWL-nbTxDOE--39" value="" style="shape=tableRow;horizontal=0;startSize=0;swimlaneHead=0;swimlaneBody=0;fillColor=none;collapsible=0;dropTarget=0;points=[[0,0.5],[1,0.5]];portConstraint=eastwest;top=0;left=0;right=0;bottom=0;" parent="q-2chvohRWL-nbTxDOE--29" vertex="1">
                    <mxGeometry y="120" width="280" height="30" as="geometry"/>
                </mxCell>
                <mxCell id="q-2chvohRWL-nbTxDOE--40" value="" style="shape=partialRectangle;connectable=0;fillColor=none;top=0;left=0;bottom=0;right=0;editable=1;overflow=hidden;" parent="q-2chvohRWL-nbTxDOE--39" vertex="1">
                    <mxGeometry width="30" height="30" as="geometry">
                        <mxRectangle width="30" height="30" as="alternateBounds"/>
                    </mxGeometry>
                </mxCell>
                <mxCell id="q-2chvohRWL-nbTxDOE--41" value="begindate" style="shape=partialRectangle;connectable=0;fillColor=none;top=0;left=0;bottom=0;right=0;align=left;spacingLeft=6;overflow=hidden;" parent="q-2chvohRWL-nbTxDOE--39" vertex="1">
                    <mxGeometry x="30" width="250" height="30" as="geometry">
                        <mxRectangle width="250" height="30" as="alternateBounds"/>
                    </mxGeometry>
                </mxCell>
                <mxCell id="q-2chvohRWL-nbTxDOE--42" value="" style="shape=tableRow;horizontal=0;startSize=0;swimlaneHead=0;swimlaneBody=0;fillColor=none;collapsible=0;dropTarget=0;points=[[0,0.5],[1,0.5]];portConstraint=eastwest;top=0;left=0;right=0;bottom=0;" parent="q-2chvohRWL-nbTxDOE--29" vertex="1">
                    <mxGeometry y="150" width="280" height="30" as="geometry"/>
                </mxCell>
                <mxCell id="q-2chvohRWL-nbTxDOE--43" value="" style="shape=partialRectangle;connectable=0;fillColor=none;top=0;left=0;bottom=0;right=0;editable=1;overflow=hidden;" parent="q-2chvohRWL-nbTxDOE--42" vertex="1">
                    <mxGeometry width="30" height="30" as="geometry">
                        <mxRectangle width="30" height="30" as="alternateBounds"/>
                    </mxGeometry>
                </mxCell>
                <mxCell id="q-2chvohRWL-nbTxDOE--44" value="enddate" style="shape=partialRectangle;connectable=0;fillColor=none;top=0;left=0;bottom=0;right=0;align=left;spacingLeft=6;overflow=hidden;" parent="q-2chvohRWL-nbTxDOE--42" vertex="1">
                    <mxGeometry x="30" width="250" height="30" as="geometry">
                        <mxRectangle width="250" height="30" as="alternateBounds"/>
                    </mxGeometry>
                </mxCell>
                <mxCell id="q-2chvohRWL-nbTxDOE--45" value="" style="shape=tableRow;horizontal=0;startSize=0;swimlaneHead=0;swimlaneBody=0;fillColor=none;collapsible=0;dropTarget=0;points=[[0,0.5],[1,0.5]];portConstraint=eastwest;top=0;left=0;right=0;bottom=0;" parent="q-2chvohRWL-nbTxDOE--29" vertex="1">
                    <mxGeometry y="180" width="280" height="30" as="geometry"/>
                </mxCell>
                <mxCell id="q-2chvohRWL-nbTxDOE--46" value="" style="shape=partialRectangle;connectable=0;fillColor=none;top=0;left=0;bottom=0;right=0;editable=1;overflow=hidden;" parent="q-2chvohRWL-nbTxDOE--45" vertex="1">
                    <mxGeometry width="30" height="30" as="geometry">
                        <mxRectangle width="30" height="30" as="alternateBounds"/>
                    </mxGeometry>
                </mxCell>
                <mxCell id="q-2chvohRWL-nbTxDOE--47" value="description" style="shape=partialRectangle;connectable=0;fillColor=none;top=0;left=0;bottom=0;right=0;align=left;spacingLeft=6;overflow=hidden;" parent="q-2chvohRWL-nbTxDOE--45" vertex="1">
                    <mxGeometry x="30" width="250" height="30" as="geometry">
                        <mxRectangle width="250" height="30" as="alternateBounds"/>
                    </mxGeometry>
                </mxCell>
                <mxCell id="q-2chvohRWL-nbTxDOE--48" value="" style="shape=tableRow;horizontal=0;startSize=0;swimlaneHead=0;swimlaneBody=0;fillColor=none;collapsible=0;dropTarget=0;points=[[0,0.5],[1,0.5]];portConstraint=eastwest;top=0;left=0;right=0;bottom=0;" parent="q-2chvohRWL-nbTxDOE--29" vertex="1">
                    <mxGeometry y="210" width="280" height="30" as="geometry"/>
                </mxCell>
                <mxCell id="q-2chvohRWL-nbTxDOE--49" value="" style="shape=partialRectangle;connectable=0;fillColor=none;top=0;left=0;bottom=0;right=0;editable=1;overflow=hidden;" parent="q-2chvohRWL-nbTxDOE--48" vertex="1">
                    <mxGeometry width="30" height="30" as="geometry">
                        <mxRectangle width="30" height="30" as="alternateBounds"/>
                    </mxGeometry>
                </mxCell>
                <mxCell id="q-2chvohRWL-nbTxDOE--50" value="category" style="shape=partialRectangle;connectable=0;fillColor=none;top=0;left=0;bottom=0;right=0;align=left;spacingLeft=6;overflow=hidden;" parent="q-2chvohRWL-nbTxDOE--48" vertex="1">
                    <mxGeometry x="30" width="250" height="30" as="geometry">
                        <mxRectangle width="250" height="30" as="alternateBounds"/>
                    </mxGeometry>
                </mxCell>
                <mxCell id="q-2chvohRWL-nbTxDOE--51" value="" style="shape=tableRow;horizontal=0;startSize=0;swimlaneHead=0;swimlaneBody=0;fillColor=none;collapsible=0;dropTarget=0;points=[[0,0.5],[1,0.5]];portConstraint=eastwest;top=0;left=0;right=0;bottom=0;" parent="q-2chvohRWL-nbTxDOE--29" vertex="1">
                    <mxGeometry y="240" width="280" height="30" as="geometry"/>
                </mxCell>
                <mxCell id="q-2chvohRWL-nbTxDOE--52" value="" style="shape=partialRectangle;connectable=0;fillColor=none;top=0;left=0;bottom=0;right=0;editable=1;overflow=hidden;" parent="q-2chvohRWL-nbTxDOE--51" vertex="1">
                    <mxGeometry width="30" height="30" as="geometry">
                        <mxRectangle width="30" height="30" as="alternateBounds"/>
                    </mxGeometry>
                </mxCell>
                <mxCell id="q-2chvohRWL-nbTxDOE--53" value="poster" style="shape=partialRectangle;connectable=0;fillColor=none;top=0;left=0;bottom=0;right=0;align=left;spacingLeft=6;overflow=hidden;" parent="q-2chvohRWL-nbTxDOE--51" vertex="1">
                    <mxGeometry x="30" width="250" height="30" as="geometry">
                        <mxRectangle width="250" height="30" as="alternateBounds"/>
                    </mxGeometry>
                </mxCell>
                <mxCell id="q-2chvohRWL-nbTxDOE--54" value="" style="shape=tableRow;horizontal=0;startSize=0;swimlaneHead=0;swimlaneBody=0;fillColor=none;collapsible=0;dropTarget=0;points=[[0,0.5],[1,0.5]];portConstraint=eastwest;top=0;left=0;right=0;bottom=0;" parent="q-2chvohRWL-nbTxDOE--29" vertex="1">
                    <mxGeometry y="270" width="280" height="30" as="geometry"/>
                </mxCell>
                <mxCell id="q-2chvohRWL-nbTxDOE--55" value="" style="shape=partialRectangle;connectable=0;fillColor=none;top=0;left=0;bottom=0;right=0;editable=1;overflow=hidden;" parent="q-2chvohRWL-nbTxDOE--54" vertex="1">
                    <mxGeometry width="30" height="30" as="geometry">
                        <mxRectangle width="30" height="30" as="alternateBounds"/>
                    </mxGeometry>
                </mxCell>
                <mxCell id="q-2chvohRWL-nbTxDOE--56" value="likes" style="shape=partialRectangle;connectable=0;fillColor=none;top=0;left=0;bottom=0;right=0;align=left;spacingLeft=6;overflow=hidden;" parent="q-2chvohRWL-nbTxDOE--54" vertex="1">
                    <mxGeometry x="30" width="250" height="30" as="geometry">
                        <mxRectangle width="250" height="30" as="alternateBounds"/>
                    </mxGeometry>
                </mxCell>
                <mxCell id="q-2chvohRWL-nbTxDOE--57" value="" style="shape=tableRow;horizontal=0;startSize=0;swimlaneHead=0;swimlaneBody=0;fillColor=none;collapsible=0;dropTarget=0;points=[[0,0.5],[1,0.5]];portConstraint=eastwest;top=0;left=0;right=0;bottom=0;" parent="q-2chvohRWL-nbTxDOE--29" vertex="1">
                    <mxGeometry y="300" width="280" height="30" as="geometry"/>
                </mxCell>
                <mxCell id="q-2chvohRWL-nbTxDOE--58" value="" style="shape=partialRectangle;connectable=0;fillColor=none;top=0;left=0;bottom=0;right=0;editable=1;overflow=hidden;" parent="q-2chvohRWL-nbTxDOE--57" vertex="1">
                    <mxGeometry width="30" height="30" as="geometry">
                        <mxRectangle width="30" height="30" as="alternateBounds"/>
                    </mxGeometry>
                </mxCell>
                <mxCell id="q-2chvohRWL-nbTxDOE--59" value="comments" style="shape=partialRectangle;connectable=0;fillColor=none;top=0;left=0;bottom=0;right=0;align=left;spacingLeft=6;overflow=hidden;" parent="q-2chvohRWL-nbTxDOE--57" vertex="1">
                    <mxGeometry x="30" width="250" height="30" as="geometry">
                        <mxRectangle width="250" height="30" as="alternateBounds"/>
                    </mxGeometry>
                </mxCell>
                <mxCell id="q-2chvohRWL-nbTxDOE--60" value="" style="shape=tableRow;horizontal=0;startSize=0;swimlaneHead=0;swimlaneBody=0;fillColor=none;collapsible=0;dropTarget=0;points=[[0,0.5],[1,0.5]];portConstraint=eastwest;top=0;left=0;right=0;bottom=0;" parent="q-2chvohRWL-nbTxDOE--29" vertex="1">
                    <mxGeometry y="330" width="280" height="30" as="geometry"/>
                </mxCell>
                <mxCell id="q-2chvohRWL-nbTxDOE--61" value="" style="shape=partialRectangle;connectable=0;fillColor=none;top=0;left=0;bottom=0;right=0;editable=1;overflow=hidden;" parent="q-2chvohRWL-nbTxDOE--60" vertex="1">
                    <mxGeometry width="30" height="30" as="geometry">
                        <mxRectangle width="30" height="30" as="alternateBounds"/>
                    </mxGeometry>
                </mxCell>
                <mxCell id="q-2chvohRWL-nbTxDOE--62" value="content" style="shape=partialRectangle;connectable=0;fillColor=none;top=0;left=0;bottom=0;right=0;align=left;spacingLeft=6;overflow=hidden;" parent="q-2chvohRWL-nbTxDOE--60" vertex="1">
                    <mxGeometry x="30" width="250" height="30" as="geometry">
                        <mxRectangle width="250" height="30" as="alternateBounds"/>
                    </mxGeometry>
                </mxCell>
                <mxCell id="q-2chvohRWL-nbTxDOE--63" value="" style="shape=tableRow;horizontal=0;startSize=0;swimlaneHead=0;swimlaneBody=0;fillColor=none;collapsible=0;dropTarget=0;points=[[0,0.5],[1,0.5]];portConstraint=eastwest;top=0;left=0;right=0;bottom=0;" parent="q-2chvohRWL-nbTxDOE--29" vertex="1">
                    <mxGeometry y="360" width="280" height="30" as="geometry"/>
                </mxCell>
                <mxCell id="q-2chvohRWL-nbTxDOE--64" value="" style="shape=partialRectangle;connectable=0;fillColor=none;top=0;left=0;bottom=0;right=0;editable=1;overflow=hidden;" parent="q-2chvohRWL-nbTxDOE--63" vertex="1">
                    <mxGeometry width="30" height="30" as="geometry">
                        <mxRectangle width="30" height="30" as="alternateBounds"/>
                    </mxGeometry>
                </mxCell>
                <mxCell id="q-2chvohRWL-nbTxDOE--65" value="state" style="shape=partialRectangle;connectable=0;fillColor=none;top=0;left=0;bottom=0;right=0;align=left;spacingLeft=6;overflow=hidden;" parent="q-2chvohRWL-nbTxDOE--63" vertex="1">
                    <mxGeometry x="30" width="250" height="30" as="geometry">
                        <mxRectangle width="250" height="30" as="alternateBounds"/>
                    </mxGeometry>
                </mxCell>
                <mxCell id="q-2chvohRWL-nbTxDOE--66" value="Ideas" style="shape=table;startSize=30;container=1;collapsible=1;childLayout=tableLayout;fixedRows=1;rowLines=0;fontStyle=1;align=center;resizeLast=1;direction=east;rounded=1;" parent="1" vertex="1">
                    <mxGeometry x="-274" y="-992" width="220" height="180" as="geometry"/>
                </mxCell>
                <mxCell id="q-2chvohRWL-nbTxDOE--67" value="" style="shape=tableRow;horizontal=0;startSize=0;swimlaneHead=0;swimlaneBody=0;fillColor=none;collapsible=0;dropTarget=0;points=[[0,0.5],[1,0.5]];portConstraint=eastwest;top=0;left=0;right=0;bottom=1;" parent="q-2chvohRWL-nbTxDOE--66" vertex="1">
                    <mxGeometry y="30" width="220" height="30" as="geometry"/>
                </mxCell>
                <mxCell id="q-2chvohRWL-nbTxDOE--68" value="PK" style="shape=partialRectangle;connectable=0;fillColor=none;top=0;left=0;bottom=0;right=0;fontStyle=1;overflow=hidden;" parent="q-2chvohRWL-nbTxDOE--67" vertex="1">
                    <mxGeometry width="30" height="30" as="geometry">
                        <mxRectangle width="30" height="30" as="alternateBounds"/>
                    </mxGeometry>
                </mxCell>
                <mxCell id="q-2chvohRWL-nbTxDOE--69" value="id" style="shape=partialRectangle;connectable=0;fillColor=none;top=0;left=0;bottom=0;right=0;align=left;spacingLeft=6;fontStyle=5;overflow=hidden;" parent="q-2chvohRWL-nbTxDOE--67" vertex="1">
                    <mxGeometry x="30" width="190" height="30" as="geometry">
                        <mxRectangle width="190" height="30" as="alternateBounds"/>
                    </mxGeometry>
                </mxCell>
                <mxCell id="q-2chvohRWL-nbTxDOE--70" value="" style="shape=tableRow;horizontal=0;startSize=0;swimlaneHead=0;swimlaneBody=0;fillColor=none;collapsible=0;dropTarget=0;points=[[0,0.5],[1,0.5]];portConstraint=eastwest;top=0;left=0;right=0;bottom=0;" parent="q-2chvohRWL-nbTxDOE--66" vertex="1">
                    <mxGeometry y="60" width="220" height="30" as="geometry"/>
                </mxCell>
                <mxCell id="q-2chvohRWL-nbTxDOE--71" value="FK" style="shape=partialRectangle;connectable=0;fillColor=none;top=0;left=0;bottom=0;right=0;editable=1;overflow=hidden;" parent="q-2chvohRWL-nbTxDOE--70" vertex="1">
                    <mxGeometry width="30" height="30" as="geometry">
                        <mxRectangle width="30" height="30" as="alternateBounds"/>
                    </mxGeometry>
                </mxCell>
                <mxCell id="q-2chvohRWL-nbTxDOE--72" value="authorId" style="shape=partialRectangle;connectable=0;fillColor=none;top=0;left=0;bottom=0;right=0;align=left;spacingLeft=6;overflow=hidden;" parent="q-2chvohRWL-nbTxDOE--70" vertex="1">
                    <mxGeometry x="30" width="190" height="30" as="geometry">
                        <mxRectangle width="190" height="30" as="alternateBounds"/>
                    </mxGeometry>
                </mxCell>
                <mxCell id="q-2chvohRWL-nbTxDOE--73" value="" style="shape=tableRow;horizontal=0;startSize=0;swimlaneHead=0;swimlaneBody=0;fillColor=none;collapsible=0;dropTarget=0;points=[[0,0.5],[1,0.5]];portConstraint=eastwest;top=0;left=0;right=0;bottom=0;" parent="q-2chvohRWL-nbTxDOE--66" vertex="1">
                    <mxGeometry y="90" width="220" height="30" as="geometry"/>
                </mxCell>
                <mxCell id="q-2chvohRWL-nbTxDOE--74" value="" style="shape=partialRectangle;connectable=0;fillColor=none;top=0;left=0;bottom=0;right=0;editable=1;overflow=hidden;" parent="q-2chvohRWL-nbTxDOE--73" vertex="1">
                    <mxGeometry width="30" height="30" as="geometry">
                        <mxRectangle width="30" height="30" as="alternateBounds"/>
                    </mxGeometry>
                </mxCell>
                <mxCell id="q-2chvohRWL-nbTxDOE--75" value="title" style="shape=partialRectangle;connectable=0;fillColor=none;top=0;left=0;bottom=0;right=0;align=left;spacingLeft=6;overflow=hidden;" parent="q-2chvohRWL-nbTxDOE--73" vertex="1">
                    <mxGeometry x="30" width="190" height="30" as="geometry">
                        <mxRectangle width="190" height="30" as="alternateBounds"/>
                    </mxGeometry>
                </mxCell>
                <mxCell id="q-2chvohRWL-nbTxDOE--76" value="" style="shape=tableRow;horizontal=0;startSize=0;swimlaneHead=0;swimlaneBody=0;fillColor=none;collapsible=0;dropTarget=0;points=[[0,0.5],[1,0.5]];portConstraint=eastwest;top=0;left=0;right=0;bottom=0;" parent="q-2chvohRWL-nbTxDOE--66" vertex="1">
                    <mxGeometry y="120" width="220" height="30" as="geometry"/>
                </mxCell>
                <mxCell id="q-2chvohRWL-nbTxDOE--77" value="" style="shape=partialRectangle;connectable=0;fillColor=none;top=0;left=0;bottom=0;right=0;editable=1;overflow=hidden;" parent="q-2chvohRWL-nbTxDOE--76" vertex="1">
                    <mxGeometry width="30" height="30" as="geometry">
                        <mxRectangle width="30" height="30" as="alternateBounds"/>
                    </mxGeometry>
                </mxCell>
                <mxCell id="q-2chvohRWL-nbTxDOE--78" value="content" style="shape=partialRectangle;connectable=0;fillColor=none;top=0;left=0;bottom=0;right=0;align=left;spacingLeft=6;overflow=hidden;" parent="q-2chvohRWL-nbTxDOE--76" vertex="1">
                    <mxGeometry x="30" width="190" height="30" as="geometry">
                        <mxRectangle width="190" height="30" as="alternateBounds"/>
                    </mxGeometry>
                </mxCell>
                <mxCell id="q-2chvohRWL-nbTxDOE--79" value="" style="shape=tableRow;horizontal=0;startSize=0;swimlaneHead=0;swimlaneBody=0;fillColor=none;collapsible=0;dropTarget=0;points=[[0,0.5],[1,0.5]];portConstraint=eastwest;top=0;left=0;right=0;bottom=0;" parent="q-2chvohRWL-nbTxDOE--66" vertex="1">
                    <mxGeometry y="150" width="220" height="30" as="geometry"/>
                </mxCell>
                <mxCell id="q-2chvohRWL-nbTxDOE--80" value="" style="shape=partialRectangle;connectable=0;fillColor=none;top=0;left=0;bottom=0;right=0;editable=1;overflow=hidden;" parent="q-2chvohRWL-nbTxDOE--79" vertex="1">
                    <mxGeometry width="30" height="30" as="geometry">
                        <mxRectangle width="30" height="30" as="alternateBounds"/>
                    </mxGeometry>
                </mxCell>
                <mxCell id="q-2chvohRWL-nbTxDOE--81" value="datePosted" style="shape=partialRectangle;connectable=0;fillColor=none;top=0;left=0;bottom=0;right=0;align=left;spacingLeft=6;overflow=hidden;" parent="q-2chvohRWL-nbTxDOE--79" vertex="1">
                    <mxGeometry x="30" width="190" height="30" as="geometry">
                        <mxRectangle width="190" height="30" as="alternateBounds"/>
                    </mxGeometry>
                </mxCell>
                <mxCell id="q-2chvohRWL-nbTxDOE--82" value="Images_related" style="shape=table;startSize=30;container=1;collapsible=1;childLayout=tableLayout;fixedRows=1;rowLines=0;fontStyle=1;align=center;resizeLast=1;direction=east;rounded=1;" parent="1" vertex="1">
                    <mxGeometry x="-700" y="-2052" width="220" height="150" as="geometry"/>
                </mxCell>
                <mxCell id="q-2chvohRWL-nbTxDOE--83" value="" style="shape=tableRow;horizontal=0;startSize=0;swimlaneHead=0;swimlaneBody=0;fillColor=none;collapsible=0;dropTarget=0;points=[[0,0.5],[1,0.5]];portConstraint=eastwest;top=0;left=0;right=0;bottom=1;" parent="q-2chvohRWL-nbTxDOE--82" vertex="1">
                    <mxGeometry y="30" width="220" height="30" as="geometry"/>
                </mxCell>
                <mxCell id="q-2chvohRWL-nbTxDOE--84" value="PK" style="shape=partialRectangle;connectable=0;fillColor=none;top=0;left=0;bottom=0;right=0;fontStyle=1;overflow=hidden;" parent="q-2chvohRWL-nbTxDOE--83" vertex="1">
                    <mxGeometry width="30" height="30" as="geometry">
                        <mxRectangle width="30" height="30" as="alternateBounds"/>
                    </mxGeometry>
                </mxCell>
                <mxCell id="q-2chvohRWL-nbTxDOE--85" value="id" style="shape=partialRectangle;connectable=0;fillColor=none;top=0;left=0;bottom=0;right=0;align=left;spacingLeft=6;fontStyle=5;overflow=hidden;" parent="q-2chvohRWL-nbTxDOE--83" vertex="1">
                    <mxGeometry x="30" width="190" height="30" as="geometry">
                        <mxRectangle width="190" height="30" as="alternateBounds"/>
                    </mxGeometry>
                </mxCell>
                <mxCell id="q-2chvohRWL-nbTxDOE--86" value="" style="shape=tableRow;horizontal=0;startSize=0;swimlaneHead=0;swimlaneBody=0;fillColor=none;collapsible=0;dropTarget=0;points=[[0,0.5],[1,0.5]];portConstraint=eastwest;top=0;left=0;right=0;bottom=0;" parent="q-2chvohRWL-nbTxDOE--82" vertex="1">
                    <mxGeometry y="60" width="220" height="30" as="geometry"/>
                </mxCell>
                <mxCell id="q-2chvohRWL-nbTxDOE--87" value="FK" style="shape=partialRectangle;connectable=0;fillColor=none;top=0;left=0;bottom=0;right=0;editable=1;overflow=hidden;" parent="q-2chvohRWL-nbTxDOE--86" vertex="1">
                    <mxGeometry width="30" height="30" as="geometry">
                        <mxRectangle width="30" height="30" as="alternateBounds"/>
                    </mxGeometry>
                </mxCell>
                <mxCell id="q-2chvohRWL-nbTxDOE--88" value="authorId" style="shape=partialRectangle;connectable=0;fillColor=none;top=0;left=0;bottom=0;right=0;align=left;spacingLeft=6;overflow=hidden;" parent="q-2chvohRWL-nbTxDOE--86" vertex="1">
                    <mxGeometry x="30" width="190" height="30" as="geometry">
                        <mxRectangle width="190" height="30" as="alternateBounds"/>
                    </mxGeometry>
                </mxCell>
                <mxCell id="q-2chvohRWL-nbTxDOE--89" value="" style="shape=tableRow;horizontal=0;startSize=0;swimlaneHead=0;swimlaneBody=0;fillColor=none;collapsible=0;dropTarget=0;points=[[0,0.5],[1,0.5]];portConstraint=eastwest;top=0;left=0;right=0;bottom=0;" parent="q-2chvohRWL-nbTxDOE--82" vertex="1">
                    <mxGeometry y="90" width="220" height="30" as="geometry"/>
                </mxCell>
                <mxCell id="q-2chvohRWL-nbTxDOE--90" value="" style="shape=partialRectangle;connectable=0;fillColor=none;top=0;left=0;bottom=0;right=0;editable=1;overflow=hidden;" parent="q-2chvohRWL-nbTxDOE--89" vertex="1">
                    <mxGeometry width="30" height="30" as="geometry">
                        <mxRectangle width="30" height="30" as="alternateBounds"/>
                    </mxGeometry>
                </mxCell>
                <mxCell id="q-2chvohRWL-nbTxDOE--91" value="poster" style="shape=partialRectangle;connectable=0;fillColor=none;top=0;left=0;bottom=0;right=0;align=left;spacingLeft=6;overflow=hidden;" parent="q-2chvohRWL-nbTxDOE--89" vertex="1">
                    <mxGeometry x="30" width="190" height="30" as="geometry">
                        <mxRectangle width="190" height="30" as="alternateBounds"/>
                    </mxGeometry>
                </mxCell>
                <mxCell id="q-2chvohRWL-nbTxDOE--92" value="" style="shape=tableRow;horizontal=0;startSize=0;swimlaneHead=0;swimlaneBody=0;fillColor=none;collapsible=0;dropTarget=0;points=[[0,0.5],[1,0.5]];portConstraint=eastwest;top=0;left=0;right=0;bottom=0;" parent="q-2chvohRWL-nbTxDOE--82" vertex="1">
                    <mxGeometry y="120" width="220" height="30" as="geometry"/>
                </mxCell>
                <mxCell id="q-2chvohRWL-nbTxDOE--93" value="" style="shape=partialRectangle;connectable=0;fillColor=none;top=0;left=0;bottom=0;right=0;editable=1;overflow=hidden;" parent="q-2chvohRWL-nbTxDOE--92" vertex="1">
                    <mxGeometry width="30" height="30" as="geometry">
                        <mxRectangle width="30" height="30" as="alternateBounds"/>
                    </mxGeometry>
                </mxCell>
                <mxCell id="q-2chvohRWL-nbTxDOE--94" value="datePosted" style="shape=partialRectangle;connectable=0;fillColor=none;top=0;left=0;bottom=0;right=0;align=left;spacingLeft=6;overflow=hidden;" parent="q-2chvohRWL-nbTxDOE--92" vertex="1">
                    <mxGeometry x="30" width="190" height="30" as="geometry">
                        <mxRectangle width="190" height="30" as="alternateBounds"/>
                    </mxGeometry>
                </mxCell>
                <mxCell id="q-2chvohRWL-nbTxDOE--95" value="Products" style="shape=table;startSize=30;container=1;collapsible=1;childLayout=tableLayout;fixedRows=1;rowLines=0;fontStyle=1;align=center;resizeLast=1;direction=east;rounded=1;" parent="1" vertex="1">
                    <mxGeometry x="-1418" y="-2053" width="220" height="332.0833122057795" as="geometry"/>
                </mxCell>
                <mxCell id="q-2chvohRWL-nbTxDOE--96" value="" style="shape=tableRow;horizontal=0;startSize=0;swimlaneHead=0;swimlaneBody=0;fillColor=none;collapsible=0;dropTarget=0;points=[[0,0.5],[1,0.5]];portConstraint=eastwest;top=0;left=0;right=0;bottom=1;" parent="q-2chvohRWL-nbTxDOE--95" vertex="1">
                    <mxGeometry y="30" width="220" height="30" as="geometry"/>
                </mxCell>
                <mxCell id="q-2chvohRWL-nbTxDOE--97" value="PK" style="shape=partialRectangle;connectable=0;fillColor=none;top=0;left=0;bottom=0;right=0;fontStyle=1;overflow=hidden;" parent="q-2chvohRWL-nbTxDOE--96" vertex="1">
                    <mxGeometry width="30" height="30" as="geometry">
                        <mxRectangle width="30" height="30" as="alternateBounds"/>
                    </mxGeometry>
                </mxCell>
                <mxCell id="q-2chvohRWL-nbTxDOE--98" value="id" style="shape=partialRectangle;connectable=0;fillColor=none;top=0;left=0;bottom=0;right=0;align=left;spacingLeft=6;fontStyle=5;overflow=hidden;" parent="q-2chvohRWL-nbTxDOE--96" vertex="1">
                    <mxGeometry x="30" width="190" height="30" as="geometry">
                        <mxRectangle width="190" height="30" as="alternateBounds"/>
                    </mxGeometry>
                </mxCell>
                <mxCell id="q-2chvohRWL-nbTxDOE--99" value="" style="shape=tableRow;horizontal=0;startSize=0;swimlaneHead=0;swimlaneBody=0;fillColor=none;collapsible=0;dropTarget=0;points=[[0,0.5],[1,0.5]];portConstraint=eastwest;top=0;left=0;right=0;bottom=0;" parent="q-2chvohRWL-nbTxDOE--95" vertex="1">
                    <mxGeometry y="60" width="220" height="30" as="geometry"/>
                </mxCell>
                <mxCell id="q-2chvohRWL-nbTxDOE--100" value="" style="shape=partialRectangle;connectable=0;fillColor=none;top=0;left=0;bottom=0;right=0;editable=1;overflow=hidden;" parent="q-2chvohRWL-nbTxDOE--99" vertex="1">
                    <mxGeometry width="30" height="30" as="geometry">
                        <mxRectangle width="30" height="30" as="alternateBounds"/>
                    </mxGeometry>
                </mxCell>
                <mxCell id="q-2chvohRWL-nbTxDOE--101" value="name" style="shape=partialRectangle;connectable=0;fillColor=none;top=0;left=0;bottom=0;right=0;align=left;spacingLeft=6;overflow=hidden;" parent="q-2chvohRWL-nbTxDOE--99" vertex="1">
                    <mxGeometry x="30" width="190" height="30" as="geometry">
                        <mxRectangle width="190" height="30" as="alternateBounds"/>
                    </mxGeometry>
                </mxCell>
                <mxCell id="q-2chvohRWL-nbTxDOE--102" value="" style="shape=tableRow;horizontal=0;startSize=0;swimlaneHead=0;swimlaneBody=0;fillColor=none;collapsible=0;dropTarget=0;points=[[0,0.5],[1,0.5]];portConstraint=eastwest;top=0;left=0;right=0;bottom=0;" parent="q-2chvohRWL-nbTxDOE--95" vertex="1">
                    <mxGeometry y="90" width="220" height="30" as="geometry"/>
                </mxCell>
                <mxCell id="q-2chvohRWL-nbTxDOE--103" value="" style="shape=partialRectangle;connectable=0;fillColor=none;top=0;left=0;bottom=0;right=0;editable=1;overflow=hidden;" parent="q-2chvohRWL-nbTxDOE--102" vertex="1">
                    <mxGeometry width="30" height="30" as="geometry">
                        <mxRectangle width="30" height="30" as="alternateBounds"/>
                    </mxGeometry>
                </mxCell>
                <mxCell id="q-2chvohRWL-nbTxDOE--104" value="category" style="shape=partialRectangle;connectable=0;fillColor=none;top=0;left=0;bottom=0;right=0;align=left;spacingLeft=6;overflow=hidden;" parent="q-2chvohRWL-nbTxDOE--102" vertex="1">
                    <mxGeometry x="30" width="190" height="30" as="geometry">
                        <mxRectangle width="190" height="30" as="alternateBounds"/>
                    </mxGeometry>
                </mxCell>
                <mxCell id="q-2chvohRWL-nbTxDOE--105" value="" style="shape=tableRow;horizontal=0;startSize=0;swimlaneHead=0;swimlaneBody=0;fillColor=none;collapsible=0;dropTarget=0;points=[[0,0.5],[1,0.5]];portConstraint=eastwest;top=0;left=0;right=0;bottom=0;" parent="q-2chvohRWL-nbTxDOE--95" vertex="1">
                    <mxGeometry y="120" width="220" height="30" as="geometry"/>
                </mxCell>
                <mxCell id="q-2chvohRWL-nbTxDOE--106" value="" style="shape=partialRectangle;connectable=0;fillColor=none;top=0;left=0;bottom=0;right=0;editable=1;overflow=hidden;" parent="q-2chvohRWL-nbTxDOE--105" vertex="1">
                    <mxGeometry width="30" height="30" as="geometry">
                        <mxRectangle width="30" height="30" as="alternateBounds"/>
                    </mxGeometry>
                </mxCell>
                <mxCell id="q-2chvohRWL-nbTxDOE--107" value="price" style="shape=partialRectangle;connectable=0;fillColor=none;top=0;left=0;bottom=0;right=0;align=left;spacingLeft=6;overflow=hidden;" parent="q-2chvohRWL-nbTxDOE--105" vertex="1">
                    <mxGeometry x="30" width="190" height="30" as="geometry">
                        <mxRectangle width="190" height="30" as="alternateBounds"/>
                    </mxGeometry>
                </mxCell>
                <mxCell id="q-2chvohRWL-nbTxDOE--108" value="" style="shape=tableRow;horizontal=0;startSize=0;swimlaneHead=0;swimlaneBody=0;fillColor=none;collapsible=0;dropTarget=0;points=[[0,0.5],[1,0.5]];portConstraint=eastwest;top=0;left=0;right=0;bottom=0;" parent="q-2chvohRWL-nbTxDOE--95" vertex="1">
                    <mxGeometry y="150" width="220" height="30" as="geometry"/>
                </mxCell>
                <mxCell id="q-2chvohRWL-nbTxDOE--109" value="" style="shape=partialRectangle;connectable=0;fillColor=none;top=0;left=0;bottom=0;right=0;editable=1;overflow=hidden;" parent="q-2chvohRWL-nbTxDOE--108" vertex="1">
                    <mxGeometry width="30" height="30" as="geometry">
                        <mxRectangle width="30" height="30" as="alternateBounds"/>
                    </mxGeometry>
                </mxCell>
                <mxCell id="q-2chvohRWL-nbTxDOE--110" value="solde" style="shape=partialRectangle;connectable=0;fillColor=none;top=0;left=0;bottom=0;right=0;align=left;spacingLeft=6;overflow=hidden;" parent="q-2chvohRWL-nbTxDOE--108" vertex="1">
                    <mxGeometry x="30" width="190" height="30" as="geometry">
                        <mxRectangle width="190" height="30" as="alternateBounds"/>
                    </mxGeometry>
                </mxCell>
                <mxCell id="q-2chvohRWL-nbTxDOE--111" value="" style="shape=tableRow;horizontal=0;startSize=0;swimlaneHead=0;swimlaneBody=0;fillColor=none;collapsible=0;dropTarget=0;points=[[0,0.5],[1,0.5]];portConstraint=eastwest;top=0;left=0;right=0;bottom=0;" parent="q-2chvohRWL-nbTxDOE--95" vertex="1">
                    <mxGeometry y="180" width="220" height="30" as="geometry"/>
                </mxCell>
                <mxCell id="q-2chvohRWL-nbTxDOE--112" value="" style="shape=partialRectangle;connectable=0;fillColor=none;top=0;left=0;bottom=0;right=0;editable=1;overflow=hidden;" parent="q-2chvohRWL-nbTxDOE--111" vertex="1">
                    <mxGeometry width="30" height="30" as="geometry">
                        <mxRectangle width="30" height="30" as="alternateBounds"/>
                    </mxGeometry>
                </mxCell>
                <mxCell id="q-2chvohRWL-nbTxDOE--113" value="descripton" style="shape=partialRectangle;connectable=0;fillColor=none;top=0;left=0;bottom=0;right=0;align=left;spacingLeft=6;overflow=hidden;" parent="q-2chvohRWL-nbTxDOE--111" vertex="1">
                    <mxGeometry x="30" width="190" height="30" as="geometry">
                        <mxRectangle width="190" height="30" as="alternateBounds"/>
                    </mxGeometry>
                </mxCell>
                <mxCell id="TLzUDuVnlaiM9kxZPNYK-1" value="" style="shape=tableRow;horizontal=0;startSize=0;swimlaneHead=0;swimlaneBody=0;fillColor=none;collapsible=0;dropTarget=0;points=[[0,0.5],[1,0.5]];portConstraint=eastwest;top=0;left=0;right=0;bottom=0;" parent="q-2chvohRWL-nbTxDOE--95" vertex="1">
                    <mxGeometry y="210" width="220" height="28" as="geometry"/>
                </mxCell>
                <mxCell id="TLzUDuVnlaiM9kxZPNYK-2" value="" style="shape=partialRectangle;connectable=0;fillColor=none;top=0;left=0;bottom=0;right=0;editable=1;overflow=hidden;" parent="TLzUDuVnlaiM9kxZPNYK-1" vertex="1">
                    <mxGeometry width="30" height="28" as="geometry">
                        <mxRectangle width="30" height="28" as="alternateBounds"/>
                    </mxGeometry>
                </mxCell>
                <mxCell id="TLzUDuVnlaiM9kxZPNYK-3" value="quantity" style="shape=partialRectangle;connectable=0;fillColor=none;top=0;left=0;bottom=0;right=0;align=left;spacingLeft=6;overflow=hidden;" parent="TLzUDuVnlaiM9kxZPNYK-1" vertex="1">
                    <mxGeometry x="30" width="190" height="28" as="geometry">
                        <mxRectangle width="190" height="28" as="alternateBounds"/>
                    </mxGeometry>
                </mxCell>
                <mxCell id="q-2chvohRWL-nbTxDOE--114" value="" style="shape=tableRow;horizontal=0;startSize=0;swimlaneHead=0;swimlaneBody=0;fillColor=none;collapsible=0;dropTarget=0;points=[[0,0.5],[1,0.5]];portConstraint=eastwest;top=0;left=0;right=0;bottom=0;" parent="q-2chvohRWL-nbTxDOE--95" vertex="1">
                    <mxGeometry y="238" width="220" height="30" as="geometry"/>
                </mxCell>
                <mxCell id="q-2chvohRWL-nbTxDOE--115" value="" style="shape=partialRectangle;connectable=0;fillColor=none;top=0;left=0;bottom=0;right=0;editable=1;overflow=hidden;" parent="q-2chvohRWL-nbTxDOE--114" vertex="1">
                    <mxGeometry width="30" height="30" as="geometry">
                        <mxRectangle width="30" height="30" as="alternateBounds"/>
                    </mxGeometry>
                </mxCell>
                <mxCell id="q-2chvohRWL-nbTxDOE--116" value="likes" style="shape=partialRectangle;connectable=0;fillColor=none;top=0;left=0;bottom=0;right=0;align=left;spacingLeft=6;overflow=hidden;" parent="q-2chvohRWL-nbTxDOE--114" vertex="1">
                    <mxGeometry x="30" width="190" height="30" as="geometry">
                        <mxRectangle width="190" height="30" as="alternateBounds"/>
                    </mxGeometry>
                </mxCell>
                <mxCell id="q-2chvohRWL-nbTxDOE--117" value="" style="shape=tableRow;horizontal=0;startSize=0;swimlaneHead=0;swimlaneBody=0;fillColor=none;collapsible=0;dropTarget=0;points=[[0,0.5],[1,0.5]];portConstraint=eastwest;top=0;left=0;right=0;bottom=0;" parent="q-2chvohRWL-nbTxDOE--95" vertex="1">
                    <mxGeometry y="268" width="220" height="30" as="geometry"/>
                </mxCell>
                <mxCell id="q-2chvohRWL-nbTxDOE--118" value="" style="shape=partialRectangle;connectable=0;fillColor=none;top=0;left=0;bottom=0;right=0;editable=1;overflow=hidden;" parent="q-2chvohRWL-nbTxDOE--117" vertex="1">
                    <mxGeometry width="30" height="30" as="geometry">
                        <mxRectangle width="30" height="30" as="alternateBounds"/>
                    </mxGeometry>
                </mxCell>
                <mxCell id="q-2chvohRWL-nbTxDOE--119" value="comment" style="shape=partialRectangle;connectable=0;fillColor=none;top=0;left=0;bottom=0;right=0;align=left;spacingLeft=6;overflow=hidden;" parent="q-2chvohRWL-nbTxDOE--117" vertex="1">
                    <mxGeometry x="30" width="190" height="30" as="geometry">
                        <mxRectangle width="190" height="30" as="alternateBounds"/>
                    </mxGeometry>
                </mxCell>
                <mxCell id="q-2chvohRWL-nbTxDOE--120" value="" style="shape=tableRow;horizontal=0;startSize=0;swimlaneHead=0;swimlaneBody=0;fillColor=none;collapsible=0;dropTarget=0;points=[[0,0.5],[1,0.5]];portConstraint=eastwest;top=0;left=0;right=0;bottom=0;" parent="q-2chvohRWL-nbTxDOE--95" vertex="1">
                    <mxGeometry y="298" width="220" height="31" as="geometry"/>
                </mxCell>
                <mxCell id="q-2chvohRWL-nbTxDOE--121" value="" style="shape=partialRectangle;connectable=0;fillColor=none;top=0;left=0;bottom=0;right=0;editable=1;overflow=hidden;" parent="q-2chvohRWL-nbTxDOE--120" vertex="1">
                    <mxGeometry width="30" height="31" as="geometry">
                        <mxRectangle width="30" height="31" as="alternateBounds"/>
                    </mxGeometry>
                </mxCell>
                <mxCell id="q-2chvohRWL-nbTxDOE--122" value="poster" style="shape=partialRectangle;connectable=0;fillColor=none;top=0;left=0;bottom=0;right=0;align=left;spacingLeft=6;overflow=hidden;" parent="q-2chvohRWL-nbTxDOE--120" vertex="1">
                    <mxGeometry x="30" width="190" height="31" as="geometry">
                        <mxRectangle width="190" height="31" as="alternateBounds"/>
                    </mxGeometry>
                </mxCell>
                <mxCell id="q-2chvohRWL-nbTxDOE--123" value="sign in" style="shape=rhombus;perimeter=rhombusPerimeter;whiteSpace=wrap;html=1;align=center;rounded=1;" parent="1" vertex="1">
                    <mxGeometry x="-1451" y="-1471" width="200" height="100" as="geometry"/>
                </mxCell>
                <mxCell id="q-2chvohRWL-nbTxDOE--124" value="" style="endArrow=classic;html=1;" parent="1" source="q-2chvohRWL-nbTxDOE--214" edge="1">
                    <mxGeometry width="50" height="50" relative="1" as="geometry">
                        <mxPoint x="-699" y="-1543" as="sourcePoint"/>
                        <mxPoint x="-537" y="-1543" as="targetPoint"/>
                    </mxGeometry>
                </mxCell>
                <mxCell id="q-2chvohRWL-nbTxDOE--125" value="" style="endArrow=classic;html=1;entryX=0;entryY=0.5;entryDx=0;entryDy=0;" parent="1" target="q-2chvohRWL-nbTxDOE--2" edge="1">
                    <mxGeometry width="50" height="50" relative="1" as="geometry">
                        <mxPoint x="-2045" y="-1540" as="sourcePoint"/>
                        <mxPoint x="-2004" y="-1578" as="targetPoint"/>
                        <Array as="points">
                            <mxPoint x="-2013" y="-1540"/>
                        </Array>
                    </mxGeometry>
                </mxCell>
                <mxCell id="q-2chvohRWL-nbTxDOE--126" value="" style="endArrow=classic;html=1;entryX=0;entryY=0.5;entryDx=0;entryDy=0;" parent="1" target="q-2chvohRWL-nbTxDOE--30" edge="1">
                    <mxGeometry width="50" height="50" relative="1" as="geometry">
                        <mxPoint x="-1080" y="-1569" as="sourcePoint"/>
                        <mxPoint x="-984" y="-1569" as="targetPoint"/>
                    </mxGeometry>
                </mxCell>
                <mxCell id="q-2chvohRWL-nbTxDOE--127" value="" style="endArrow=classic;html=1;" parent="1" edge="1">
                    <mxGeometry width="50" height="50" relative="1" as="geometry">
                        <mxPoint x="-275" y="-918" as="sourcePoint"/>
                        <mxPoint x="-395" y="-918" as="targetPoint"/>
                    </mxGeometry>
                </mxCell>
                <mxCell id="q-2chvohRWL-nbTxDOE--128" value="to users_id" style="text;html=1;align=center;verticalAlign=middle;resizable=0;points=[];autosize=1;strokeColor=none;fillColor=none;rounded=1;" parent="1" vertex="1">
                    <mxGeometry x="-475" y="-931" width="77" height="26" as="geometry"/>
                </mxCell>
                <mxCell id="q-2chvohRWL-nbTxDOE--129" value="" style="endArrow=classic;html=1;" parent="1" edge="1">
                    <mxGeometry width="50" height="50" relative="1" as="geometry">
                        <mxPoint x="-354" y="-948" as="sourcePoint"/>
                        <mxPoint x="-275" y="-948.0000000000009" as="targetPoint"/>
                    </mxGeometry>
                </mxCell>
                <mxCell id="q-2chvohRWL-nbTxDOE--130" value="" style="endArrow=classic;html=1;exitX=1;exitY=0.5;exitDx=0;exitDy=0;" parent="1" edge="1">
                    <mxGeometry width="50" height="50" relative="1" as="geometry">
                        <mxPoint x="-478" y="-1982" as="sourcePoint"/>
                        <mxPoint x="-378" y="-1982" as="targetPoint"/>
                    </mxGeometry>
                </mxCell>
                <mxCell id="q-2chvohRWL-nbTxDOE--131" value="to users_id" style="text;html=1;align=center;verticalAlign=middle;resizable=0;points=[];autosize=1;strokeColor=none;fillColor=none;" parent="1" vertex="1">
                    <mxGeometry x="-373" y="-1996" width="77" height="26" as="geometry"/>
                </mxCell>
                <mxCell id="q-2chvohRWL-nbTxDOE--132" value="" style="endArrow=classic;html=1;" parent="1" edge="1">
                    <mxGeometry width="50" height="50" relative="1" as="geometry">
                        <mxPoint x="-1504" y="-2004" as="sourcePoint"/>
                        <mxPoint x="-1425" y="-2004" as="targetPoint"/>
                    </mxGeometry>
                </mxCell>
                <mxCell id="q-2chvohRWL-nbTxDOE--133" value="" style="endArrow=none;html=1;exitX=1;exitY=0.5;exitDx=0;exitDy=0;startArrow=none;" parent="1" source="q-2chvohRWL-nbTxDOE--136" edge="1">
                    <mxGeometry width="50" height="50" relative="1" as="geometry">
                        <mxPoint x="-1693" y="-1424" as="sourcePoint"/>
                        <mxPoint x="-1448" y="-1420" as="targetPoint"/>
                    </mxGeometry>
                </mxCell>
                <mxCell id="q-2chvohRWL-nbTxDOE--134" value="" style="endArrow=none;html=1;exitX=1;exitY=0.5;exitDx=0;exitDy=0;startArrow=none;" parent="1" source="q-2chvohRWL-nbTxDOE--138" edge="1">
                    <mxGeometry width="50" height="50" relative="1" as="geometry">
                        <mxPoint x="-1256" y="-1421" as="sourcePoint"/>
                        <mxPoint x="-981" y="-1421" as="targetPoint"/>
                    </mxGeometry>
                </mxCell>
                <mxCell id="q-2chvohRWL-nbTxDOE--135" value="" style="endArrow=none;html=1;exitX=1;exitY=0.5;exitDx=0;exitDy=0;" parent="1" source="q-2chvohRWL-nbTxDOE--14" target="q-2chvohRWL-nbTxDOE--136" edge="1">
                    <mxGeometry width="50" height="50" relative="1" as="geometry">
                        <mxPoint x="-1759" y="-1419.9999999999998" as="sourcePoint"/>
                        <mxPoint x="-1448" y="-1419.9999999999998" as="targetPoint"/>
                    </mxGeometry>
                </mxCell>
                <mxCell id="q-2chvohRWL-nbTxDOE--136" value="(1,1)" style="text;html=1;align=center;verticalAlign=middle;resizable=0;points=[];autosize=1;strokeColor=none;fillColor=none;strokeWidth=1;fontSize=20;" parent="1" vertex="1">
                    <mxGeometry x="-1634" y="-1438" width="59" height="36" as="geometry"/>
                </mxCell>
                <mxCell id="q-2chvohRWL-nbTxDOE--137" value="" style="endArrow=none;html=1;exitX=1;exitY=0.5;exitDx=0;exitDy=0;" parent="1" target="q-2chvohRWL-nbTxDOE--138" edge="1">
                    <mxGeometry width="50" height="50" relative="1" as="geometry">
                        <mxPoint x="-1256" y="-1421" as="sourcePoint"/>
                        <mxPoint x="-981" y="-1421" as="targetPoint"/>
                    </mxGeometry>
                </mxCell>
                <mxCell id="q-2chvohRWL-nbTxDOE--138" value="(1,*)" style="text;html=1;align=center;verticalAlign=middle;resizable=0;points=[];autosize=1;strokeColor=none;fillColor=none;strokeWidth=1;fontSize=20;" parent="1" vertex="1">
                    <mxGeometry x="-1137" y="-1438" width="56" height="36" as="geometry"/>
                </mxCell>
                <mxCell id="q-2chvohRWL-nbTxDOE--139" value="Purchase" style="shape=rhombus;perimeter=rhombusPerimeter;whiteSpace=wrap;html=1;align=center;rounded=1;rotation=0;" parent="1" vertex="1">
                    <mxGeometry x="-1886" y="-1997" width="200" height="100" as="geometry"/>
                </mxCell>
                <mxCell id="q-2chvohRWL-nbTxDOE--140" value="" style="endArrow=none;html=1;fontSize=15;entryX=0.5;entryY=1;entryDx=0;entryDy=0;startArrow=none;" parent="1" source="q-2chvohRWL-nbTxDOE--143" target="q-2chvohRWL-nbTxDOE--139" edge="1">
                    <mxGeometry width="50" height="50" relative="1" as="geometry">
                        <mxPoint x="-1867" y="-1585" as="sourcePoint"/>
                        <mxPoint x="-1867" y="-1832" as="targetPoint"/>
                    </mxGeometry>
                </mxCell>
                <mxCell id="q-2chvohRWL-nbTxDOE--141" value="" style="endArrow=none;html=1;fontSize=15;exitX=1;exitY=0.5;exitDx=0;exitDy=0;startArrow=none;entryX=0;entryY=0.5;entryDx=0;entryDy=0;" parent="1" source="q-2chvohRWL-nbTxDOE--145" target="q-2chvohRWL-nbTxDOE--102" edge="1">
                    <mxGeometry width="50" height="50" relative="1" as="geometry">
                        <mxPoint x="-1686" y="-1904" as="sourcePoint"/>
                        <mxPoint x="-1411" y="-1922" as="targetPoint"/>
                    </mxGeometry>
                </mxCell>
                <mxCell id="q-2chvohRWL-nbTxDOE--142" value="" style="endArrow=none;html=1;fontSize=15;entryX=0.5;entryY=1;entryDx=0;entryDy=0;exitX=0.5;exitY=0;exitDx=0;exitDy=0;" parent="1" source="q-2chvohRWL-nbTxDOE--1" target="q-2chvohRWL-nbTxDOE--143" edge="1">
                    <mxGeometry width="50" height="50" relative="1" as="geometry">
                        <mxPoint x="-1867.0000000000002" y="-1584.9999999999998" as="sourcePoint"/>
                        <mxPoint x="-1869" y="-1858" as="targetPoint"/>
                    </mxGeometry>
                </mxCell>
                <mxCell id="q-2chvohRWL-nbTxDOE--143" value="(1,*)" style="text;html=1;align=center;verticalAlign=middle;resizable=0;points=[];autosize=1;strokeColor=none;fillColor=none;fontSize=22;" parent="1" vertex="1">
                    <mxGeometry x="-1816" y="-1711" width="60" height="38" as="geometry"/>
                </mxCell>
                <mxCell id="q-2chvohRWL-nbTxDOE--144" value="" style="endArrow=none;html=1;fontSize=15;exitX=1;exitY=0.5;exitDx=0;exitDy=0;" parent="1" source="q-2chvohRWL-nbTxDOE--139" target="q-2chvohRWL-nbTxDOE--145" edge="1">
                    <mxGeometry width="50" height="50" relative="1" as="geometry">
                        <mxPoint x="-1769" y="-1908" as="sourcePoint"/>
                        <mxPoint x="-1422" y="-1908" as="targetPoint"/>
                    </mxGeometry>
                </mxCell>
                <mxCell id="q-2chvohRWL-nbTxDOE--145" value="(0,*)" style="text;html=1;align=center;verticalAlign=middle;resizable=0;points=[];autosize=1;strokeColor=none;fillColor=none;fontSize=22;" parent="1" vertex="1">
                    <mxGeometry x="-1622" y="-1966" width="60" height="38" as="geometry"/>
                </mxCell>
                <mxCell id="q-2chvohRWL-nbTxDOE--146" value="Images_related_comment" style="shape=table;startSize=30;container=1;collapsible=1;childLayout=tableLayout;fixedRows=1;rowLines=0;fontStyle=1;align=center;resizeLast=1;direction=east;rounded=1;" parent="1" vertex="1">
                    <mxGeometry x="9" y="-1676" width="220" height="120" as="geometry"/>
                </mxCell>
                <mxCell id="q-2chvohRWL-nbTxDOE--147" value="" style="shape=tableRow;horizontal=0;startSize=0;swimlaneHead=0;swimlaneBody=0;fillColor=none;collapsible=0;dropTarget=0;points=[[0,0.5],[1,0.5]];portConstraint=eastwest;top=0;left=0;right=0;bottom=1;" parent="q-2chvohRWL-nbTxDOE--146" vertex="1">
                    <mxGeometry y="30" width="220" height="30" as="geometry"/>
                </mxCell>
                <mxCell id="q-2chvohRWL-nbTxDOE--148" value="PK" style="shape=partialRectangle;connectable=0;fillColor=none;top=0;left=0;bottom=0;right=0;fontStyle=1;overflow=hidden;" parent="q-2chvohRWL-nbTxDOE--147" vertex="1">
                    <mxGeometry width="30" height="30" as="geometry">
                        <mxRectangle width="30" height="30" as="alternateBounds"/>
                    </mxGeometry>
                </mxCell>
                <mxCell id="q-2chvohRWL-nbTxDOE--149" value="id" style="shape=partialRectangle;connectable=0;fillColor=none;top=0;left=0;bottom=0;right=0;align=left;spacingLeft=6;fontStyle=5;overflow=hidden;" parent="q-2chvohRWL-nbTxDOE--147" vertex="1">
                    <mxGeometry x="30" width="190" height="30" as="geometry">
                        <mxRectangle width="190" height="30" as="alternateBounds"/>
                    </mxGeometry>
                </mxCell>
                <mxCell id="q-2chvohRWL-nbTxDOE--150" value="" style="shape=tableRow;horizontal=0;startSize=0;swimlaneHead=0;swimlaneBody=0;fillColor=none;collapsible=0;dropTarget=0;points=[[0,0.5],[1,0.5]];portConstraint=eastwest;top=0;left=0;right=0;bottom=0;" parent="q-2chvohRWL-nbTxDOE--146" vertex="1">
                    <mxGeometry y="60" width="220" height="30" as="geometry"/>
                </mxCell>
                <mxCell id="q-2chvohRWL-nbTxDOE--151" value="FK" style="shape=partialRectangle;connectable=0;fillColor=none;top=0;left=0;bottom=0;right=0;editable=1;overflow=hidden;" parent="q-2chvohRWL-nbTxDOE--150" vertex="1">
                    <mxGeometry width="30" height="30" as="geometry">
                        <mxRectangle width="30" height="30" as="alternateBounds"/>
                    </mxGeometry>
                </mxCell>
                <mxCell id="q-2chvohRWL-nbTxDOE--152" value="authorId" style="shape=partialRectangle;connectable=0;fillColor=none;top=0;left=0;bottom=0;right=0;align=left;spacingLeft=6;overflow=hidden;" parent="q-2chvohRWL-nbTxDOE--150" vertex="1">
                    <mxGeometry x="30" width="190" height="30" as="geometry">
                        <mxRectangle width="190" height="30" as="alternateBounds"/>
                    </mxGeometry>
                </mxCell>
                <mxCell id="q-2chvohRWL-nbTxDOE--153" value="" style="shape=tableRow;horizontal=0;startSize=0;swimlaneHead=0;swimlaneBody=0;fillColor=none;collapsible=0;dropTarget=0;points=[[0,0.5],[1,0.5]];portConstraint=eastwest;top=0;left=0;right=0;bottom=0;" parent="q-2chvohRWL-nbTxDOE--146" vertex="1">
                    <mxGeometry y="90" width="220" height="30" as="geometry"/>
                </mxCell>
                <mxCell id="q-2chvohRWL-nbTxDOE--154" value="" style="shape=partialRectangle;connectable=0;fillColor=none;top=0;left=0;bottom=0;right=0;editable=1;overflow=hidden;" parent="q-2chvohRWL-nbTxDOE--153" vertex="1">
                    <mxGeometry width="30" height="30" as="geometry">
                        <mxRectangle width="30" height="30" as="alternateBounds"/>
                    </mxGeometry>
                </mxCell>
                <mxCell id="q-2chvohRWL-nbTxDOE--155" value="poster" style="shape=partialRectangle;connectable=0;fillColor=none;top=0;left=0;bottom=0;right=0;align=left;spacingLeft=6;overflow=hidden;" parent="q-2chvohRWL-nbTxDOE--153" vertex="1">
                    <mxGeometry x="30" width="190" height="30" as="geometry">
                        <mxRectangle width="190" height="30" as="alternateBounds"/>
                    </mxGeometry>
                </mxCell>
                <mxCell id="q-2chvohRWL-nbTxDOE--156" value="events_Comments" style="shape=table;startSize=30;container=1;collapsible=1;childLayout=tableLayout;fixedRows=1;rowLines=0;fontStyle=1;align=center;resizeLast=1;direction=east;rounded=1;" parent="1" vertex="1">
                    <mxGeometry x="-952" y="-741" width="220" height="175" as="geometry"/>
                </mxCell>
                <mxCell id="q-2chvohRWL-nbTxDOE--157" value="" style="shape=tableRow;horizontal=0;startSize=0;swimlaneHead=0;swimlaneBody=0;fillColor=none;collapsible=0;dropTarget=0;points=[[0,0.5],[1,0.5]];portConstraint=eastwest;top=0;left=0;right=0;bottom=1;" parent="q-2chvohRWL-nbTxDOE--156" vertex="1">
                    <mxGeometry y="30" width="220" height="30" as="geometry"/>
                </mxCell>
                <mxCell id="q-2chvohRWL-nbTxDOE--158" value="PK" style="shape=partialRectangle;connectable=0;fillColor=none;top=0;left=0;bottom=0;right=0;fontStyle=1;overflow=hidden;" parent="q-2chvohRWL-nbTxDOE--157" vertex="1">
                    <mxGeometry width="31.18755531311035" height="30" as="geometry">
                        <mxRectangle width="31.18755531311035" height="30" as="alternateBounds"/>
                    </mxGeometry>
                </mxCell>
                <mxCell id="q-2chvohRWL-nbTxDOE--159" value="id" style="shape=partialRectangle;connectable=0;fillColor=none;top=0;left=0;bottom=0;right=0;align=left;spacingLeft=6;fontStyle=5;overflow=hidden;" parent="q-2chvohRWL-nbTxDOE--157" vertex="1">
                    <mxGeometry x="31.18755531311035" width="188.81244468688965" height="30" as="geometry">
                        <mxRectangle width="188.81244468688965" height="30" as="alternateBounds"/>
                    </mxGeometry>
                </mxCell>
                <mxCell id="q-2chvohRWL-nbTxDOE--160" value="" style="shape=tableRow;horizontal=0;startSize=0;swimlaneHead=0;swimlaneBody=0;fillColor=none;collapsible=0;dropTarget=0;points=[[0,0.5],[1,0.5]];portConstraint=eastwest;top=0;left=0;right=0;bottom=0;" parent="q-2chvohRWL-nbTxDOE--156" vertex="1">
                    <mxGeometry y="60" width="220" height="30" as="geometry"/>
                </mxCell>
                <mxCell id="q-2chvohRWL-nbTxDOE--161" value="FK" style="shape=partialRectangle;connectable=0;fillColor=none;top=0;left=0;bottom=0;right=0;editable=1;overflow=hidden;" parent="q-2chvohRWL-nbTxDOE--160" vertex="1">
                    <mxGeometry width="31.18755531311035" height="30" as="geometry">
                        <mxRectangle width="31.18755531311035" height="30" as="alternateBounds"/>
                    </mxGeometry>
                </mxCell>
                <mxCell id="q-2chvohRWL-nbTxDOE--162" value="authorId" style="shape=partialRectangle;connectable=0;fillColor=none;top=0;left=0;bottom=0;right=0;align=left;spacingLeft=6;overflow=hidden;" parent="q-2chvohRWL-nbTxDOE--160" vertex="1">
                    <mxGeometry x="31.18755531311035" width="188.81244468688965" height="30" as="geometry">
                        <mxRectangle width="188.81244468688965" height="30" as="alternateBounds"/>
                    </mxGeometry>
                </mxCell>
                <mxCell id="q-2chvohRWL-nbTxDOE--163" value="" style="shape=tableRow;horizontal=0;startSize=0;swimlaneHead=0;swimlaneBody=0;fillColor=none;collapsible=0;dropTarget=0;points=[[0,0.5],[1,0.5]];portConstraint=eastwest;top=0;left=0;right=0;bottom=0;" parent="q-2chvohRWL-nbTxDOE--156" vertex="1">
                    <mxGeometry y="90" width="220" height="30" as="geometry"/>
                </mxCell>
                <mxCell id="q-2chvohRWL-nbTxDOE--164" value="" style="shape=partialRectangle;connectable=0;fillColor=none;top=0;left=0;bottom=0;right=0;editable=1;overflow=hidden;" parent="q-2chvohRWL-nbTxDOE--163" vertex="1">
                    <mxGeometry width="31.18755531311035" height="30" as="geometry">
                        <mxRectangle width="31.18755531311035" height="30" as="alternateBounds"/>
                    </mxGeometry>
                </mxCell>
                <mxCell id="q-2chvohRWL-nbTxDOE--165" value="dateposted" style="shape=partialRectangle;connectable=0;fillColor=none;top=0;left=0;bottom=0;right=0;align=left;spacingLeft=6;overflow=hidden;" parent="q-2chvohRWL-nbTxDOE--163" vertex="1">
                    <mxGeometry x="31.18755531311035" width="188.81244468688965" height="30" as="geometry">
                        <mxRectangle width="188.81244468688965" height="30" as="alternateBounds"/>
                    </mxGeometry>
                </mxCell>
                <mxCell id="q-2chvohRWL-nbTxDOE--166" value="" style="shape=tableRow;horizontal=0;startSize=0;swimlaneHead=0;swimlaneBody=0;fillColor=none;collapsible=0;dropTarget=0;points=[[0,0.5],[1,0.5]];portConstraint=eastwest;top=0;left=0;right=0;bottom=0;" parent="q-2chvohRWL-nbTxDOE--156" vertex="1">
                    <mxGeometry y="120" width="220" height="27" as="geometry"/>
                </mxCell>
                <mxCell id="q-2chvohRWL-nbTxDOE--167" value="" style="shape=partialRectangle;connectable=0;fillColor=none;top=0;left=0;bottom=0;right=0;editable=1;overflow=hidden;" parent="q-2chvohRWL-nbTxDOE--166" vertex="1">
                    <mxGeometry width="31.18755531311035" height="27" as="geometry">
                        <mxRectangle width="31.18755531311035" height="27" as="alternateBounds"/>
                    </mxGeometry>
                </mxCell>
                <mxCell id="q-2chvohRWL-nbTxDOE--168" value="likes" style="shape=partialRectangle;connectable=0;fillColor=none;top=0;left=0;bottom=0;right=0;align=left;spacingLeft=6;overflow=hidden;" parent="q-2chvohRWL-nbTxDOE--166" vertex="1">
                    <mxGeometry x="31.18755531311035" width="188.81244468688965" height="27" as="geometry">
                        <mxRectangle width="188.81244468688965" height="27" as="alternateBounds"/>
                    </mxGeometry>
                </mxCell>
                <mxCell id="q-2chvohRWL-nbTxDOE--169" value="" style="shape=tableRow;horizontal=0;startSize=0;swimlaneHead=0;swimlaneBody=0;fillColor=none;collapsible=0;dropTarget=0;points=[[0,0.5],[1,0.5]];portConstraint=eastwest;top=0;left=0;right=0;bottom=0;" parent="q-2chvohRWL-nbTxDOE--156" vertex="1">
                    <mxGeometry y="147" width="220" height="27" as="geometry"/>
                </mxCell>
                <mxCell id="q-2chvohRWL-nbTxDOE--170" value="" style="shape=partialRectangle;connectable=0;fillColor=none;top=0;left=0;bottom=0;right=0;editable=1;overflow=hidden;" parent="q-2chvohRWL-nbTxDOE--169" vertex="1">
                    <mxGeometry width="31.18755531311035" height="27" as="geometry">
                        <mxRectangle width="31.18755531311035" height="27" as="alternateBounds"/>
                    </mxGeometry>
                </mxCell>
                <mxCell id="q-2chvohRWL-nbTxDOE--171" value="content" style="shape=partialRectangle;connectable=0;fillColor=none;top=0;left=0;bottom=0;right=0;align=left;spacingLeft=6;overflow=hidden;" parent="q-2chvohRWL-nbTxDOE--169" vertex="1">
                    <mxGeometry x="31.18755531311035" width="188.81244468688965" height="27" as="geometry">
                        <mxRectangle width="188.81244468688965" height="27" as="alternateBounds"/>
                    </mxGeometry>
                </mxCell>
                <mxCell id="q-2chvohRWL-nbTxDOE--172" value="product_Comments" style="shape=table;startSize=30;container=1;collapsible=1;childLayout=tableLayout;fixedRows=1;rowLines=0;fontStyle=1;align=center;resizeLast=1;direction=east;rounded=1;" parent="1" vertex="1">
                    <mxGeometry x="-1063" y="-2366" width="220" height="169.70001220703125" as="geometry"/>
                </mxCell>
                <mxCell id="q-2chvohRWL-nbTxDOE--173" value="" style="shape=tableRow;horizontal=0;startSize=0;swimlaneHead=0;swimlaneBody=0;fillColor=none;collapsible=0;dropTarget=0;points=[[0,0.5],[1,0.5]];portConstraint=eastwest;top=0;left=0;right=0;bottom=1;" parent="q-2chvohRWL-nbTxDOE--172" vertex="1">
                    <mxGeometry y="30" width="220" height="30" as="geometry"/>
                </mxCell>
                <mxCell id="q-2chvohRWL-nbTxDOE--174" value="PK" style="shape=partialRectangle;connectable=0;fillColor=none;top=0;left=0;bottom=0;right=0;fontStyle=1;overflow=hidden;" parent="q-2chvohRWL-nbTxDOE--173" vertex="1">
                    <mxGeometry width="31.18755531311035" height="30" as="geometry">
                        <mxRectangle width="31.18755531311035" height="30" as="alternateBounds"/>
                    </mxGeometry>
                </mxCell>
                <mxCell id="q-2chvohRWL-nbTxDOE--175" value="id" style="shape=partialRectangle;connectable=0;fillColor=none;top=0;left=0;bottom=0;right=0;align=left;spacingLeft=6;fontStyle=5;overflow=hidden;" parent="q-2chvohRWL-nbTxDOE--173" vertex="1">
                    <mxGeometry x="31.18755531311035" width="188.81244468688965" height="30" as="geometry">
                        <mxRectangle width="188.81244468688965" height="30" as="alternateBounds"/>
                    </mxGeometry>
                </mxCell>
                <mxCell id="q-2chvohRWL-nbTxDOE--176" value="" style="shape=tableRow;horizontal=0;startSize=0;swimlaneHead=0;swimlaneBody=0;fillColor=none;collapsible=0;dropTarget=0;points=[[0,0.5],[1,0.5]];portConstraint=eastwest;top=0;left=0;right=0;bottom=0;" parent="q-2chvohRWL-nbTxDOE--172" vertex="1">
                    <mxGeometry y="60" width="220" height="30" as="geometry"/>
                </mxCell>
                <mxCell id="q-2chvohRWL-nbTxDOE--177" value="FK" style="shape=partialRectangle;connectable=0;fillColor=none;top=0;left=0;bottom=0;right=0;editable=1;overflow=hidden;" parent="q-2chvohRWL-nbTxDOE--176" vertex="1">
                    <mxGeometry width="31.18755531311035" height="30" as="geometry">
                        <mxRectangle width="31.18755531311035" height="30" as="alternateBounds"/>
                    </mxGeometry>
                </mxCell>
                <mxCell id="q-2chvohRWL-nbTxDOE--178" value="authorId" style="shape=partialRectangle;connectable=0;fillColor=none;top=0;left=0;bottom=0;right=0;align=left;spacingLeft=6;overflow=hidden;" parent="q-2chvohRWL-nbTxDOE--176" vertex="1">
                    <mxGeometry x="31.18755531311035" width="188.81244468688965" height="30" as="geometry">
                        <mxRectangle width="188.81244468688965" height="30" as="alternateBounds"/>
                    </mxGeometry>
                </mxCell>
                <mxCell id="q-2chvohRWL-nbTxDOE--179" value="" style="shape=tableRow;horizontal=0;startSize=0;swimlaneHead=0;swimlaneBody=0;fillColor=none;collapsible=0;dropTarget=0;points=[[0,0.5],[1,0.5]];portConstraint=eastwest;top=0;left=0;right=0;bottom=0;" parent="q-2chvohRWL-nbTxDOE--172" vertex="1">
                    <mxGeometry y="90" width="220" height="30" as="geometry"/>
                </mxCell>
                <mxCell id="q-2chvohRWL-nbTxDOE--180" value="" style="shape=partialRectangle;connectable=0;fillColor=none;top=0;left=0;bottom=0;right=0;editable=1;overflow=hidden;" parent="q-2chvohRWL-nbTxDOE--179" vertex="1">
                    <mxGeometry width="31.18755531311035" height="30" as="geometry">
                        <mxRectangle width="31.18755531311035" height="30" as="alternateBounds"/>
                    </mxGeometry>
                </mxCell>
                <mxCell id="q-2chvohRWL-nbTxDOE--181" value="dateposted" style="shape=partialRectangle;connectable=0;fillColor=none;top=0;left=0;bottom=0;right=0;align=left;spacingLeft=6;overflow=hidden;" parent="q-2chvohRWL-nbTxDOE--179" vertex="1">
                    <mxGeometry x="31.18755531311035" width="188.81244468688965" height="30" as="geometry">
                        <mxRectangle width="188.81244468688965" height="30" as="alternateBounds"/>
                    </mxGeometry>
                </mxCell>
                <mxCell id="q-2chvohRWL-nbTxDOE--182" value="" style="shape=tableRow;horizontal=0;startSize=0;swimlaneHead=0;swimlaneBody=0;fillColor=none;collapsible=0;dropTarget=0;points=[[0,0.5],[1,0.5]];portConstraint=eastwest;top=0;left=0;right=0;bottom=0;" parent="q-2chvohRWL-nbTxDOE--172" vertex="1">
                    <mxGeometry y="120" width="220" height="27" as="geometry"/>
                </mxCell>
                <mxCell id="q-2chvohRWL-nbTxDOE--183" value="" style="shape=partialRectangle;connectable=0;fillColor=none;top=0;left=0;bottom=0;right=0;editable=1;overflow=hidden;" parent="q-2chvohRWL-nbTxDOE--182" vertex="1">
                    <mxGeometry width="31.18755531311035" height="27" as="geometry">
                        <mxRectangle width="31.18755531311035" height="27" as="alternateBounds"/>
                    </mxGeometry>
                </mxCell>
                <mxCell id="q-2chvohRWL-nbTxDOE--184" value="content" style="shape=partialRectangle;connectable=0;fillColor=none;top=0;left=0;bottom=0;right=0;align=left;spacingLeft=6;overflow=hidden;" parent="q-2chvohRWL-nbTxDOE--182" vertex="1">
                    <mxGeometry x="31.18755531311035" width="188.81244468688965" height="27" as="geometry">
                        <mxRectangle width="188.81244468688965" height="27" as="alternateBounds"/>
                    </mxGeometry>
                </mxCell>
                <mxCell id="q-2chvohRWL-nbTxDOE--185" value="" style="shape=tableRow;horizontal=0;startSize=0;swimlaneHead=0;swimlaneBody=0;fillColor=none;collapsible=0;dropTarget=0;points=[[0,0.5],[1,0.5]];portConstraint=eastwest;top=0;left=0;right=0;bottom=0;" parent="q-2chvohRWL-nbTxDOE--172" vertex="1">
                    <mxGeometry y="147" width="220" height="22" as="geometry"/>
                </mxCell>
                <mxCell id="q-2chvohRWL-nbTxDOE--186" value="" style="shape=partialRectangle;connectable=0;fillColor=none;top=0;left=0;bottom=0;right=0;editable=1;overflow=hidden;" parent="q-2chvohRWL-nbTxDOE--185" vertex="1">
                    <mxGeometry width="31.18755531311035" height="22" as="geometry">
                        <mxRectangle width="31.18755531311035" height="22" as="alternateBounds"/>
                    </mxGeometry>
                </mxCell>
                <mxCell id="q-2chvohRWL-nbTxDOE--187" value="likes" style="shape=partialRectangle;connectable=0;fillColor=none;top=0;left=0;bottom=0;right=0;align=left;spacingLeft=6;overflow=hidden;" parent="q-2chvohRWL-nbTxDOE--185" vertex="1">
                    <mxGeometry x="31.18755531311035" width="188.81244468688965" height="22" as="geometry">
                        <mxRectangle width="188.81244468688965" height="22" as="alternateBounds"/>
                    </mxGeometry>
                </mxCell>
                <mxCell id="q-2chvohRWL-nbTxDOE--188" value="ideas_Comments" style="shape=table;startSize=30;container=1;collapsible=1;childLayout=tableLayout;fixedRows=1;rowLines=0;fontStyle=1;align=center;resizeLast=1;direction=east;rounded=1;" parent="1" vertex="1">
                    <mxGeometry x="175" y="-1480" width="220" height="175" as="geometry"/>
                </mxCell>
                <mxCell id="q-2chvohRWL-nbTxDOE--189" value="" style="shape=tableRow;horizontal=0;startSize=0;swimlaneHead=0;swimlaneBody=0;fillColor=none;collapsible=0;dropTarget=0;points=[[0,0.5],[1,0.5]];portConstraint=eastwest;top=0;left=0;right=0;bottom=1;" parent="q-2chvohRWL-nbTxDOE--188" vertex="1">
                    <mxGeometry y="30" width="220" height="30" as="geometry"/>
                </mxCell>
                <mxCell id="q-2chvohRWL-nbTxDOE--190" value="PK" style="shape=partialRectangle;connectable=0;fillColor=none;top=0;left=0;bottom=0;right=0;fontStyle=1;overflow=hidden;" parent="q-2chvohRWL-nbTxDOE--189" vertex="1">
                    <mxGeometry width="31.18755531311035" height="30" as="geometry">
                        <mxRectangle width="31.18755531311035" height="30" as="alternateBounds"/>
                    </mxGeometry>
                </mxCell>
                <mxCell id="q-2chvohRWL-nbTxDOE--191" value="id" style="shape=partialRectangle;connectable=0;fillColor=none;top=0;left=0;bottom=0;right=0;align=left;spacingLeft=6;fontStyle=5;overflow=hidden;" parent="q-2chvohRWL-nbTxDOE--189" vertex="1">
                    <mxGeometry x="31.18755531311035" width="188.81244468688965" height="30" as="geometry">
                        <mxRectangle width="188.81244468688965" height="30" as="alternateBounds"/>
                    </mxGeometry>
                </mxCell>
                <mxCell id="q-2chvohRWL-nbTxDOE--192" value="" style="shape=tableRow;horizontal=0;startSize=0;swimlaneHead=0;swimlaneBody=0;fillColor=none;collapsible=0;dropTarget=0;points=[[0,0.5],[1,0.5]];portConstraint=eastwest;top=0;left=0;right=0;bottom=0;" parent="q-2chvohRWL-nbTxDOE--188" vertex="1">
                    <mxGeometry y="60" width="220" height="30" as="geometry"/>
                </mxCell>
                <mxCell id="q-2chvohRWL-nbTxDOE--193" value="FK" style="shape=partialRectangle;connectable=0;fillColor=none;top=0;left=0;bottom=0;right=0;editable=1;overflow=hidden;" parent="q-2chvohRWL-nbTxDOE--192" vertex="1">
                    <mxGeometry width="31.18755531311035" height="30" as="geometry">
                        <mxRectangle width="31.18755531311035" height="30" as="alternateBounds"/>
                    </mxGeometry>
                </mxCell>
                <mxCell id="q-2chvohRWL-nbTxDOE--194" value="authorId" style="shape=partialRectangle;connectable=0;fillColor=none;top=0;left=0;bottom=0;right=0;align=left;spacingLeft=6;overflow=hidden;" parent="q-2chvohRWL-nbTxDOE--192" vertex="1">
                    <mxGeometry x="31.18755531311035" width="188.81244468688965" height="30" as="geometry">
                        <mxRectangle width="188.81244468688965" height="30" as="alternateBounds"/>
                    </mxGeometry>
                </mxCell>
                <mxCell id="q-2chvohRWL-nbTxDOE--195" value="" style="shape=tableRow;horizontal=0;startSize=0;swimlaneHead=0;swimlaneBody=0;fillColor=none;collapsible=0;dropTarget=0;points=[[0,0.5],[1,0.5]];portConstraint=eastwest;top=0;left=0;right=0;bottom=0;" parent="q-2chvohRWL-nbTxDOE--188" vertex="1">
                    <mxGeometry y="90" width="220" height="30" as="geometry"/>
                </mxCell>
                <mxCell id="q-2chvohRWL-nbTxDOE--196" value="" style="shape=partialRectangle;connectable=0;fillColor=none;top=0;left=0;bottom=0;right=0;editable=1;overflow=hidden;" parent="q-2chvohRWL-nbTxDOE--195" vertex="1">
                    <mxGeometry width="31.18755531311035" height="30" as="geometry">
                        <mxRectangle width="31.18755531311035" height="30" as="alternateBounds"/>
                    </mxGeometry>
                </mxCell>
                <mxCell id="q-2chvohRWL-nbTxDOE--197" value="dateposted" style="shape=partialRectangle;connectable=0;fillColor=none;top=0;left=0;bottom=0;right=0;align=left;spacingLeft=6;overflow=hidden;" parent="q-2chvohRWL-nbTxDOE--195" vertex="1">
                    <mxGeometry x="31.18755531311035" width="188.81244468688965" height="30" as="geometry">
                        <mxRectangle width="188.81244468688965" height="30" as="alternateBounds"/>
                    </mxGeometry>
                </mxCell>
                <mxCell id="q-2chvohRWL-nbTxDOE--198" value="" style="shape=tableRow;horizontal=0;startSize=0;swimlaneHead=0;swimlaneBody=0;fillColor=none;collapsible=0;dropTarget=0;points=[[0,0.5],[1,0.5]];portConstraint=eastwest;top=0;left=0;right=0;bottom=0;" parent="q-2chvohRWL-nbTxDOE--188" vertex="1">
                    <mxGeometry y="120" width="220" height="27" as="geometry"/>
                </mxCell>
                <mxCell id="q-2chvohRWL-nbTxDOE--199" value="" style="shape=partialRectangle;connectable=0;fillColor=none;top=0;left=0;bottom=0;right=0;editable=1;overflow=hidden;" parent="q-2chvohRWL-nbTxDOE--198" vertex="1">
                    <mxGeometry width="31.18755531311035" height="27" as="geometry">
                        <mxRectangle width="31.18755531311035" height="27" as="alternateBounds"/>
                    </mxGeometry>
                </mxCell>
                <mxCell id="q-2chvohRWL-nbTxDOE--200" value="likes" style="shape=partialRectangle;connectable=0;fillColor=none;top=0;left=0;bottom=0;right=0;align=left;spacingLeft=6;overflow=hidden;" parent="q-2chvohRWL-nbTxDOE--198" vertex="1">
                    <mxGeometry x="31.18755531311035" width="188.81244468688965" height="27" as="geometry">
                        <mxRectangle width="188.81244468688965" height="27" as="alternateBounds"/>
                    </mxGeometry>
                </mxCell>
                <mxCell id="q-2chvohRWL-nbTxDOE--201" value="" style="shape=tableRow;horizontal=0;startSize=0;swimlaneHead=0;swimlaneBody=0;fillColor=none;collapsible=0;dropTarget=0;points=[[0,0.5],[1,0.5]];portConstraint=eastwest;top=0;left=0;right=0;bottom=0;" parent="q-2chvohRWL-nbTxDOE--188" vertex="1">
                    <mxGeometry y="147" width="220" height="27" as="geometry"/>
                </mxCell>
                <mxCell id="q-2chvohRWL-nbTxDOE--202" value="" style="shape=partialRectangle;connectable=0;fillColor=none;top=0;left=0;bottom=0;right=0;editable=1;overflow=hidden;" parent="q-2chvohRWL-nbTxDOE--201" vertex="1">
                    <mxGeometry width="31.18755531311035" height="27" as="geometry">
                        <mxRectangle width="31.18755531311035" height="27" as="alternateBounds"/>
                    </mxGeometry>
                </mxCell>
                <mxCell id="q-2chvohRWL-nbTxDOE--203" value="content" style="shape=partialRectangle;connectable=0;fillColor=none;top=0;left=0;bottom=0;right=0;align=left;spacingLeft=6;overflow=hidden;" parent="q-2chvohRWL-nbTxDOE--201" vertex="1">
                    <mxGeometry x="31.18755531311035" width="188.81244468688965" height="27" as="geometry">
                        <mxRectangle width="188.81244468688965" height="27" as="alternateBounds"/>
                    </mxGeometry>
                </mxCell>
                <mxCell id="q-2chvohRWL-nbTxDOE--204" value="Possess" style="shape=rhombus;perimeter=rhombusPerimeter;whiteSpace=wrap;html=1;align=center;rounded=1;rotation=0;" parent="1" vertex="1">
                    <mxGeometry x="-1408" y="-2313" width="200" height="100" as="geometry"/>
                </mxCell>
                <mxCell id="q-2chvohRWL-nbTxDOE--205" value="" style="endArrow=none;html=1;fontSize=13;entryX=0.5;entryY=1;entryDx=0;entryDy=0;exitX=0.5;exitY=0;exitDx=0;exitDy=0;" parent="1" source="q-2chvohRWL-nbTxDOE--235" target="q-2chvohRWL-nbTxDOE--204" edge="1">
                    <mxGeometry width="50" height="50" relative="1" as="geometry">
                        <mxPoint x="-1316" y="-2048" as="sourcePoint"/>
                        <mxPoint x="-1385" y="-2272" as="targetPoint"/>
                    </mxGeometry>
                </mxCell>
                <mxCell id="q-2chvohRWL-nbTxDOE--206" value="" style="endArrow=none;html=1;fontSize=13;exitX=1;exitY=0.5;exitDx=0;exitDy=0;entryX=0;entryY=0.5;entryDx=0;entryDy=0;" parent="1" source="q-2chvohRWL-nbTxDOE--237" target="q-2chvohRWL-nbTxDOE--179" edge="1">
                    <mxGeometry width="50" height="50" relative="1" as="geometry">
                        <mxPoint x="-1277" y="-2078" as="sourcePoint"/>
                        <mxPoint x="-1065" y="-2311" as="targetPoint"/>
                    </mxGeometry>
                </mxCell>
                <mxCell id="q-2chvohRWL-nbTxDOE--207" value="prossess" style="shape=rhombus;perimeter=rhombusPerimeter;whiteSpace=wrap;html=1;align=center;rounded=1;rotation=0;" parent="1" vertex="1">
                    <mxGeometry x="-943" y="-1057" width="200" height="100" as="geometry"/>
                </mxCell>
                <mxCell id="q-2chvohRWL-nbTxDOE--208" value="" style="endArrow=none;html=1;fontSize=13;exitX=0.5;exitY=0;exitDx=0;exitDy=0;entryX=0.5;entryY=1;entryDx=0;entryDy=0;" parent="1" source="q-2chvohRWL-nbTxDOE--225" target="q-2chvohRWL-nbTxDOE--207" edge="1">
                    <mxGeometry width="50" height="50" relative="1" as="geometry">
                        <mxPoint x="-1423" y="-629" as="sourcePoint"/>
                        <mxPoint x="-1123" y="-977" as="targetPoint"/>
                    </mxGeometry>
                </mxCell>
                <mxCell id="q-2chvohRWL-nbTxDOE--209" value="" style="endArrow=none;html=1;fontSize=13;exitX=0.5;exitY=0;exitDx=0;exitDy=0;entryX=0.489;entryY=1;entryDx=0;entryDy=0;entryPerimeter=0;" parent="1" source="q-2chvohRWL-nbTxDOE--223" target="q-2chvohRWL-nbTxDOE--63" edge="1">
                    <mxGeometry width="50" height="50" relative="1" as="geometry">
                        <mxPoint x="-763" y="-1053" as="sourcePoint"/>
                        <mxPoint x="-682" y="-1143" as="targetPoint"/>
                    </mxGeometry>
                </mxCell>
                <mxCell id="q-2chvohRWL-nbTxDOE--210" value="Possess" style="shape=rhombus;perimeter=rhombusPerimeter;whiteSpace=wrap;html=1;align=center;rounded=1;rotation=0;" parent="1" vertex="1">
                    <mxGeometry x="-263" y="-1426" width="200" height="100" as="geometry"/>
                </mxCell>
                <mxCell id="q-2chvohRWL-nbTxDOE--211" value="" style="endArrow=none;html=1;fontSize=13;entryX=0.5;entryY=1;entryDx=0;entryDy=0;exitX=0.5;exitY=0;exitDx=0;exitDy=0;" parent="1" source="q-2chvohRWL-nbTxDOE--227" target="q-2chvohRWL-nbTxDOE--210" edge="1">
                    <mxGeometry width="50" height="50" relative="1" as="geometry">
                        <mxPoint x="-836" y="-1081" as="sourcePoint"/>
                        <mxPoint x="-183" y="-1234" as="targetPoint"/>
                    </mxGeometry>
                </mxCell>
                <mxCell id="q-2chvohRWL-nbTxDOE--212" value="" style="endArrow=none;html=1;fontSize=13;exitX=1;exitY=0.5;exitDx=0;exitDy=0;entryX=0;entryY=0.5;entryDx=0;entryDy=0;" parent="1" source="q-2chvohRWL-nbTxDOE--229" target="q-2chvohRWL-nbTxDOE--195" edge="1">
                    <mxGeometry width="50" height="50" relative="1" as="geometry">
                        <mxPoint x="-96" y="-1072" as="sourcePoint"/>
                        <mxPoint x="194" y="-1230" as="targetPoint"/>
                    </mxGeometry>
                </mxCell>
                <mxCell id="q-2chvohRWL-nbTxDOE--213" value="" style="endArrow=classic;html=1;" parent="1" source="q-2chvohRWL-nbTxDOE--33" target="q-2chvohRWL-nbTxDOE--214" edge="1">
                    <mxGeometry width="50" height="50" relative="1" as="geometry">
                        <mxPoint x="-700" y="-1541" as="sourcePoint"/>
                        <mxPoint x="-537" y="-1543" as="targetPoint"/>
                    </mxGeometry>
                </mxCell>
                <mxCell id="q-2chvohRWL-nbTxDOE--214" value="to users_id" style="text;html=1;align=center;verticalAlign=middle;resizable=0;points=[];autosize=1;strokeColor=none;fillColor=none;" parent="1" vertex="1">
                    <mxGeometry x="-538" y="-1554" width="77" height="26" as="geometry"/>
                </mxCell>
                <mxCell id="q-2chvohRWL-nbTxDOE--215" value="" style="endArrow=classic;html=1;exitX=0;exitY=0.5;exitDx=0;exitDy=0;" parent="1" source="q-2chvohRWL-nbTxDOE--150" target="q-2chvohRWL-nbTxDOE--216" edge="1">
                    <mxGeometry width="50" height="50" relative="1" as="geometry">
                        <mxPoint x="-209" y="-1665" as="sourcePoint"/>
                        <mxPoint x="-322" y="-1665" as="targetPoint"/>
                    </mxGeometry>
                </mxCell>
                <mxCell id="q-2chvohRWL-nbTxDOE--216" value="to users_id" style="text;html=1;align=center;verticalAlign=middle;resizable=0;points=[];autosize=1;strokeColor=none;fillColor=none;rounded=1;" parent="1" vertex="1">
                    <mxGeometry x="-255" y="-1616" width="77" height="26" as="geometry"/>
                </mxCell>
                <mxCell id="q-2chvohRWL-nbTxDOE--217" value="" style="endArrow=classic;html=1;exitX=1;exitY=0.5;exitDx=0;exitDy=0;" parent="1" edge="1">
                    <mxGeometry width="50" height="50" relative="1" as="geometry">
                        <mxPoint x="-843" y="-2292" as="sourcePoint"/>
                        <mxPoint x="-646" y="-2292" as="targetPoint"/>
                    </mxGeometry>
                </mxCell>
                <mxCell id="q-2chvohRWL-nbTxDOE--218" value="to users_id" style="text;html=1;align=center;verticalAlign=middle;resizable=0;points=[];autosize=1;strokeColor=none;fillColor=none;" parent="1" vertex="1">
                    <mxGeometry x="-644" y="-2305" width="77" height="26" as="geometry"/>
                </mxCell>
                <mxCell id="q-2chvohRWL-nbTxDOE--219" value="" style="endArrow=none;html=1;rounded=0;exitX=0.5;exitY=0;exitDx=0;exitDy=0;entryX=0.5;entryY=1;entryDx=0;entryDy=0;" parent="1" source="q-2chvohRWL-nbTxDOE--231" target="q-2chvohRWL-nbTxDOE--220" edge="1">
                    <mxGeometry width="50" height="50" relative="1" as="geometry">
                        <mxPoint x="-692" y="-1639" as="sourcePoint"/>
                        <mxPoint x="-642" y="-1689" as="targetPoint"/>
                    </mxGeometry>
                </mxCell>
                <mxCell id="q-2chvohRWL-nbTxDOE--220" value="Pressess" style="shape=rhombus;perimeter=rhombusPerimeter;whiteSpace=wrap;html=1;align=center;rounded=1;" parent="1" vertex="1">
                    <mxGeometry x="16" y="-1997" width="200" height="100" as="geometry"/>
                </mxCell>
                <mxCell id="q-2chvohRWL-nbTxDOE--221" value="" style="endArrow=none;html=1;rounded=0;entryX=1;entryY=0.5;entryDx=0;entryDy=0;exitX=0;exitY=0.5;exitDx=0;exitDy=0;" parent="1" source="q-2chvohRWL-nbTxDOE--233" target="q-2chvohRWL-nbTxDOE--89" edge="1">
                    <mxGeometry width="50" height="50" relative="1" as="geometry">
                        <mxPoint x="-692" y="-1639" as="sourcePoint"/>
                        <mxPoint x="-642" y="-1689" as="targetPoint"/>
                    </mxGeometry>
                </mxCell>
                <mxCell id="q-2chvohRWL-nbTxDOE--222" value="" style="endArrow=none;html=1;fontSize=13;exitX=0.5;exitY=0;exitDx=0;exitDy=0;entryX=0.489;entryY=1;entryDx=0;entryDy=0;entryPerimeter=0;" parent="1" source="q-2chvohRWL-nbTxDOE--207" target="q-2chvohRWL-nbTxDOE--223" edge="1">
                    <mxGeometry width="50" height="50" relative="1" as="geometry">
                        <mxPoint x="-843" y="-1057" as="sourcePoint"/>
                        <mxPoint x="-843" y="-1225" as="targetPoint"/>
                    </mxGeometry>
                </mxCell>
                <mxCell id="q-2chvohRWL-nbTxDOE--223" value="(1,*)" style="text;html=1;align=center;verticalAlign=middle;resizable=0;points=[];autosize=1;strokeColor=none;fillColor=none;strokeWidth=1;fontSize=20;" parent="1" vertex="1">
                    <mxGeometry x="-872" y="-1162" width="56" height="36" as="geometry"/>
                </mxCell>
                <mxCell id="q-2chvohRWL-nbTxDOE--224" value="" style="endArrow=none;html=1;fontSize=13;exitX=0.5;exitY=0;exitDx=0;exitDy=0;entryX=0.5;entryY=1;entryDx=0;entryDy=0;" parent="1" source="q-2chvohRWL-nbTxDOE--156" target="q-2chvohRWL-nbTxDOE--225" edge="1">
                    <mxGeometry width="50" height="50" relative="1" as="geometry">
                        <mxPoint x="-842" y="-741" as="sourcePoint"/>
                        <mxPoint x="-843" y="-957" as="targetPoint"/>
                    </mxGeometry>
                </mxCell>
                <mxCell id="q-2chvohRWL-nbTxDOE--225" value="(1,1)" style="text;html=1;align=center;verticalAlign=middle;resizable=0;points=[];autosize=1;strokeColor=none;fillColor=none;strokeWidth=1;fontSize=20;" parent="1" vertex="1">
                    <mxGeometry x="-872" y="-879" width="59" height="36" as="geometry"/>
                </mxCell>
                <mxCell id="q-2chvohRWL-nbTxDOE--226" value="" style="endArrow=none;html=1;fontSize=13;entryX=0.5;entryY=1;entryDx=0;entryDy=0;exitX=0.5;exitY=0;exitDx=0;exitDy=0;" parent="1" source="q-2chvohRWL-nbTxDOE--66" target="q-2chvohRWL-nbTxDOE--227" edge="1">
                    <mxGeometry width="50" height="50" relative="1" as="geometry">
                        <mxPoint x="-164" y="-992" as="sourcePoint"/>
                        <mxPoint x="-163" y="-1326" as="targetPoint"/>
                    </mxGeometry>
                </mxCell>
                <mxCell id="q-2chvohRWL-nbTxDOE--227" value="(1,1)" style="text;html=1;align=center;verticalAlign=middle;resizable=0;points=[];autosize=1;strokeColor=none;fillColor=none;strokeWidth=1;fontSize=20;" parent="1" vertex="1">
                    <mxGeometry x="-192" y="-1174" width="59" height="36" as="geometry"/>
                </mxCell>
                <mxCell id="q-2chvohRWL-nbTxDOE--228" value="" style="endArrow=none;html=1;fontSize=13;exitX=1;exitY=0.5;exitDx=0;exitDy=0;entryX=0;entryY=0.5;entryDx=0;entryDy=0;" parent="1" source="q-2chvohRWL-nbTxDOE--210" target="q-2chvohRWL-nbTxDOE--229" edge="1">
                    <mxGeometry width="50" height="50" relative="1" as="geometry">
                        <mxPoint x="-63" y="-1376" as="sourcePoint"/>
                        <mxPoint x="175" y="-1375" as="targetPoint"/>
                    </mxGeometry>
                </mxCell>
                <mxCell id="q-2chvohRWL-nbTxDOE--229" value="(1,1)" style="text;html=1;align=center;verticalAlign=middle;resizable=0;points=[];autosize=1;strokeColor=none;fillColor=none;strokeWidth=1;fontSize=20;" parent="1" vertex="1">
                    <mxGeometry x="36" y="-1393" width="59" height="36" as="geometry"/>
                </mxCell>
                <mxCell id="q-2chvohRWL-nbTxDOE--230" value="" style="endArrow=none;html=1;rounded=0;exitX=0.5;exitY=0;exitDx=0;exitDy=0;entryX=0.5;entryY=1;entryDx=0;entryDy=0;" parent="1" source="q-2chvohRWL-nbTxDOE--146" target="q-2chvohRWL-nbTxDOE--231" edge="1">
                    <mxGeometry width="50" height="50" relative="1" as="geometry">
                        <mxPoint x="121" y="-1678" as="sourcePoint"/>
                        <mxPoint x="116" y="-1897" as="targetPoint"/>
                    </mxGeometry>
                </mxCell>
                <mxCell id="q-2chvohRWL-nbTxDOE--231" value="(1,1)" style="text;html=1;align=center;verticalAlign=middle;resizable=0;points=[];autosize=1;strokeColor=none;fillColor=none;strokeWidth=1;fontSize=20;" parent="1" vertex="1">
                    <mxGeometry x="88" y="-1798" width="59" height="36" as="geometry"/>
                </mxCell>
                <mxCell id="q-2chvohRWL-nbTxDOE--232" value="" style="endArrow=none;html=1;rounded=0;entryX=1;entryY=0.5;entryDx=0;entryDy=0;" parent="1" source="q-2chvohRWL-nbTxDOE--220" target="q-2chvohRWL-nbTxDOE--233" edge="1">
                    <mxGeometry width="50" height="50" relative="1" as="geometry">
                        <mxPoint x="16" y="-1947" as="sourcePoint"/>
                        <mxPoint x="-480" y="-1947" as="targetPoint"/>
                    </mxGeometry>
                </mxCell>
                <mxCell id="q-2chvohRWL-nbTxDOE--233" value="(1,*)" style="text;html=1;align=center;verticalAlign=middle;resizable=0;points=[];autosize=1;strokeColor=none;fillColor=none;strokeWidth=1;fontSize=20;" parent="1" vertex="1">
                    <mxGeometry x="-229" y="-1965" width="56" height="36" as="geometry"/>
                </mxCell>
                <mxCell id="q-2chvohRWL-nbTxDOE--234" value="" style="endArrow=none;html=1;fontSize=13;entryX=0.5;entryY=1;entryDx=0;entryDy=0;exitX=0.5;exitY=0;exitDx=0;exitDy=0;" parent="1" source="q-2chvohRWL-nbTxDOE--95" target="q-2chvohRWL-nbTxDOE--235" edge="1">
                    <mxGeometry width="50" height="50" relative="1" as="geometry">
                        <mxPoint x="-1310" y="-2034" as="sourcePoint"/>
                        <mxPoint x="-1310" y="-2210" as="targetPoint"/>
                    </mxGeometry>
                </mxCell>
                <mxCell id="q-2chvohRWL-nbTxDOE--235" value="(1,*)" style="text;html=1;align=center;verticalAlign=middle;resizable=0;points=[];autosize=1;strokeColor=none;fillColor=none;strokeWidth=1;fontSize=20;" parent="1" vertex="1">
                    <mxGeometry x="-1336" y="-2142" width="56" height="36" as="geometry"/>
                </mxCell>
                <mxCell id="q-2chvohRWL-nbTxDOE--236" value="" style="endArrow=none;html=1;fontSize=13;exitX=1;exitY=0.5;exitDx=0;exitDy=0;entryX=0;entryY=0.5;entryDx=0;entryDy=0;" parent="1" source="q-2chvohRWL-nbTxDOE--204" target="q-2chvohRWL-nbTxDOE--237" edge="1">
                    <mxGeometry width="50" height="50" relative="1" as="geometry">
                        <mxPoint x="-1210" y="-2260" as="sourcePoint"/>
                        <mxPoint x="-1049" y="-2261" as="targetPoint"/>
                    </mxGeometry>
                </mxCell>
                <mxCell id="q-2chvohRWL-nbTxDOE--237" value="(1,1)" style="text;html=1;align=center;verticalAlign=middle;resizable=0;points=[];autosize=1;strokeColor=none;fillColor=none;strokeWidth=1;fontSize=20;" parent="1" vertex="1">
                    <mxGeometry x="-1159" y="-2279" width="59" height="36" as="geometry"/>
                </mxCell>
                <mxCell id="q-2chvohRWL-nbTxDOE--238" value="" style="endArrow=classic;html=1;" parent="1" edge="1">
                    <mxGeometry width="50" height="50" relative="1" as="geometry">
                        <mxPoint x="-731" y="-669.4111600587371" as="sourcePoint"/>
                        <mxPoint x="-644" y="-669" as="targetPoint"/>
                    </mxGeometry>
                </mxCell>
                <mxCell id="q-2chvohRWL-nbTxDOE--239" value="to users_id" style="text;html=1;align=center;verticalAlign=middle;resizable=0;points=[];autosize=1;strokeColor=none;fillColor=none;" parent="1" vertex="1">
                    <mxGeometry x="-648" y="-682" width="77" height="26" as="geometry"/>
                </mxCell>
                <mxCell id="2" value="event_likes" style="shape=table;startSize=30;container=1;collapsible=1;childLayout=tableLayout;fixedRows=1;rowLines=0;fontStyle=1;align=center;resizeLast=1;direction=east;rounded=1;" parent="1" vertex="1">
                    <mxGeometry x="-454" y="-1842" width="220" height="94" as="geometry"/>
                </mxCell>
                <mxCell id="3" value="" style="shape=tableRow;horizontal=0;startSize=0;swimlaneHead=0;swimlaneBody=0;fillColor=none;collapsible=0;dropTarget=0;points=[[0,0.5],[1,0.5]];portConstraint=eastwest;top=0;left=0;right=0;bottom=1;" parent="2" vertex="1">
                    <mxGeometry y="30" width="220" height="30" as="geometry"/>
                </mxCell>
                <mxCell id="4" value="PK" style="shape=partialRectangle;connectable=0;fillColor=none;top=0;left=0;bottom=0;right=0;fontStyle=1;overflow=hidden;" parent="3" vertex="1">
                    <mxGeometry width="30" height="30" as="geometry">
                        <mxRectangle width="30" height="30" as="alternateBounds"/>
                    </mxGeometry>
                </mxCell>
                <mxCell id="5" value="likerId" style="shape=partialRectangle;connectable=0;fillColor=none;top=0;left=0;bottom=0;right=0;align=left;spacingLeft=6;fontStyle=5;overflow=hidden;" parent="3" vertex="1">
                    <mxGeometry x="30" width="190" height="30" as="geometry">
                        <mxRectangle width="190" height="30" as="alternateBounds"/>
                    </mxGeometry>
                </mxCell>
                <mxCell id="6" value="" style="shape=tableRow;horizontal=0;startSize=0;swimlaneHead=0;swimlaneBody=0;fillColor=none;collapsible=0;dropTarget=0;points=[[0,0.5],[1,0.5]];portConstraint=eastwest;top=0;left=0;right=0;bottom=0;" parent="2" vertex="1">
                    <mxGeometry y="60" width="220" height="34" as="geometry"/>
                </mxCell>
                <mxCell id="7" value="FK" style="shape=partialRectangle;connectable=0;fillColor=none;top=0;left=0;bottom=0;right=0;editable=1;overflow=hidden;" parent="6" vertex="1">
                    <mxGeometry width="30" height="34" as="geometry">
                        <mxRectangle width="30" height="34" as="alternateBounds"/>
                    </mxGeometry>
                </mxCell>
                <mxCell id="8" value="eventId" style="shape=partialRectangle;connectable=0;fillColor=none;top=0;left=0;bottom=0;right=0;align=left;spacingLeft=6;overflow=hidden;" parent="6" vertex="1">
                    <mxGeometry x="30" width="190" height="34" as="geometry">
                        <mxRectangle width="190" height="34" as="alternateBounds"/>
                    </mxGeometry>
                </mxCell>
                <mxCell id="16" value="Possess" style="shape=rhombus;perimeter=rhombusPerimeter;whiteSpace=wrap;html=1;align=center;rounded=1;rotation=0;" parent="1" vertex="1">
                    <mxGeometry x="-938" y="-1835" width="200" height="100" as="geometry"/>
                </mxCell>
                <mxCell id="17" value="" style="endArrow=none;html=1;exitX=0.5;exitY=0;exitDx=0;exitDy=0;entryX=0.5;entryY=1;entryDx=0;entryDy=0;startArrow=none;" parent="1" source="78" target="16" edge="1">
                    <mxGeometry width="50" height="50" relative="1" as="geometry">
                        <mxPoint x="-468" y="-1597" as="sourcePoint"/>
                        <mxPoint x="-418" y="-1647" as="targetPoint"/>
                    </mxGeometry>
                </mxCell>
                <mxCell id="18" value="" style="endArrow=none;html=1;exitX=1;exitY=0.5;exitDx=0;exitDy=0;entryX=0.009;entryY=-0.016;entryDx=0;entryDy=0;entryPerimeter=0;startArrow=none;" parent="1" source="76" target="6" edge="1">
                    <mxGeometry width="50" height="50" relative="1" as="geometry">
                        <mxPoint x="-466" y="-1608" as="sourcePoint"/>
                        <mxPoint x="-416" y="-1658" as="targetPoint"/>
                    </mxGeometry>
                </mxCell>
                <mxCell id="21" value="" style="endArrow=classic;html=1;exitX=1;exitY=0.5;exitDx=0;exitDy=0;" parent="1" source="3" edge="1">
                    <mxGeometry width="50" height="50" relative="1" as="geometry">
                        <mxPoint x="-379" y="-1793" as="sourcePoint"/>
                        <mxPoint x="-133" y="-1797" as="targetPoint"/>
                    </mxGeometry>
                </mxCell>
                <mxCell id="22" value="" style="endArrow=classic;html=1;exitX=1;exitY=0.5;exitDx=0;exitDy=0;" parent="1" source="6" edge="1">
                    <mxGeometry width="50" height="50" relative="1" as="geometry">
                        <mxPoint x="-221.5" y="-1764" as="sourcePoint"/>
                        <mxPoint x="-139" y="-1764" as="targetPoint"/>
                    </mxGeometry>
                </mxCell>
                <mxCell id="23" value="to users_id" style="text;html=1;align=center;verticalAlign=middle;resizable=0;points=[];autosize=1;strokeColor=none;fillColor=none;" parent="1" vertex="1">
                    <mxGeometry x="-133" y="-1808.18" width="77" height="26" as="geometry"/>
                </mxCell>
                <mxCell id="25" value="to event_id" style="text;html=1;align=center;verticalAlign=middle;resizable=0;points=[];autosize=1;strokeColor=none;fillColor=none;" parent="1" vertex="1">
                    <mxGeometry x="-133" y="-1774.3600000000001" width="77" height="26" as="geometry"/>
                </mxCell>
                <mxCell id="26" value="Idea_likes" style="shape=table;startSize=30;container=1;collapsible=1;childLayout=tableLayout;fixedRows=1;rowLines=0;fontStyle=1;align=center;resizeLast=1;direction=east;rounded=1;" parent="1" vertex="1">
                    <mxGeometry x="-273" y="-350" width="220" height="94" as="geometry"/>
                </mxCell>
                <mxCell id="27" value="" style="shape=tableRow;horizontal=0;startSize=0;swimlaneHead=0;swimlaneBody=0;fillColor=none;collapsible=0;dropTarget=0;points=[[0,0.5],[1,0.5]];portConstraint=eastwest;top=0;left=0;right=0;bottom=1;" parent="26" vertex="1">
                    <mxGeometry y="30" width="220" height="30" as="geometry"/>
                </mxCell>
                <mxCell id="28" value="PK" style="shape=partialRectangle;connectable=0;fillColor=none;top=0;left=0;bottom=0;right=0;fontStyle=1;overflow=hidden;" parent="27" vertex="1">
                    <mxGeometry width="30" height="30" as="geometry">
                        <mxRectangle width="30" height="30" as="alternateBounds"/>
                    </mxGeometry>
                </mxCell>
                <mxCell id="29" value="likerId" style="shape=partialRectangle;connectable=0;fillColor=none;top=0;left=0;bottom=0;right=0;align=left;spacingLeft=6;fontStyle=5;overflow=hidden;" parent="27" vertex="1">
                    <mxGeometry x="30" width="190" height="30" as="geometry">
                        <mxRectangle width="190" height="30" as="alternateBounds"/>
                    </mxGeometry>
                </mxCell>
                <mxCell id="30" value="" style="shape=tableRow;horizontal=0;startSize=0;swimlaneHead=0;swimlaneBody=0;fillColor=none;collapsible=0;dropTarget=0;points=[[0,0.5],[1,0.5]];portConstraint=eastwest;top=0;left=0;right=0;bottom=0;" parent="26" vertex="1">
                    <mxGeometry y="60" width="220" height="34" as="geometry"/>
                </mxCell>
                <mxCell id="31" value="FK" style="shape=partialRectangle;connectable=0;fillColor=none;top=0;left=0;bottom=0;right=0;editable=1;overflow=hidden;" parent="30" vertex="1">
                    <mxGeometry width="30" height="34" as="geometry">
                        <mxRectangle width="30" height="34" as="alternateBounds"/>
                    </mxGeometry>
                </mxCell>
                <mxCell id="32" value="IdeaId" style="shape=partialRectangle;connectable=0;fillColor=none;top=0;left=0;bottom=0;right=0;align=left;spacingLeft=6;overflow=hidden;" parent="30" vertex="1">
                    <mxGeometry x="30" width="190" height="34" as="geometry">
                        <mxRectangle width="190" height="34" as="alternateBounds"/>
                    </mxGeometry>
                </mxCell>
                <mxCell id="33" value="prossess" style="shape=rhombus;perimeter=rhombusPerimeter;whiteSpace=wrap;html=1;align=center;rounded=1;rotation=0;" parent="1" vertex="1">
                    <mxGeometry x="-263" y="-662" width="200" height="100" as="geometry"/>
                </mxCell>
                <mxCell id="34" value="" style="endArrow=none;html=1;exitX=0.5;exitY=0;exitDx=0;exitDy=0;entryX=0.5;entryY=1;entryDx=0;entryDy=0;startArrow=none;" parent="1" source="80" target="33" edge="1">
                    <mxGeometry width="50" height="50" relative="1" as="geometry">
                        <mxPoint x="-438" y="-606" as="sourcePoint"/>
                        <mxPoint x="-388" y="-656" as="targetPoint"/>
                    </mxGeometry>
                </mxCell>
                <mxCell id="35" value="" style="endArrow=none;html=1;entryX=0.5;entryY=0;entryDx=0;entryDy=0;startArrow=none;" parent="1" target="33" edge="1" source="82">
                    <mxGeometry width="50" height="50" relative="1" as="geometry">
                        <mxPoint x="-163" y="-812" as="sourcePoint"/>
                        <mxPoint x="-209" y="-629" as="targetPoint"/>
                    </mxGeometry>
                </mxCell>
                <mxCell id="36" value="" style="endArrow=classic;html=1;exitX=1;exitY=0.5;exitDx=0;exitDy=0;" parent="1" edge="1">
                    <mxGeometry width="50" height="50" relative="1" as="geometry">
                        <mxPoint x="-53" y="-304.6399999999999" as="sourcePoint"/>
                        <mxPoint x="48" y="-304.6399999999999" as="targetPoint"/>
                    </mxGeometry>
                </mxCell>
                <mxCell id="37" value="" style="endArrow=classic;html=1;exitX=1;exitY=0.5;exitDx=0;exitDy=0;" parent="1" edge="1">
                    <mxGeometry width="50" height="50" relative="1" as="geometry">
                        <mxPoint x="-53" y="-272.6399999999999" as="sourcePoint"/>
                        <mxPoint x="42" y="-271.6399999999999" as="targetPoint"/>
                    </mxGeometry>
                </mxCell>
                <mxCell id="38" value="to users_id" style="text;html=1;align=center;verticalAlign=middle;resizable=0;points=[];autosize=1;strokeColor=none;fillColor=none;" parent="1" vertex="1">
                    <mxGeometry x="48" y="-315.82000000000016" width="77" height="26" as="geometry"/>
                </mxCell>
                <mxCell id="39" value="to ideas_id" style="text;html=1;align=center;verticalAlign=middle;resizable=0;points=[];autosize=1;strokeColor=none;fillColor=none;" parent="1" vertex="1">
                    <mxGeometry x="49" y="-282" width="76" height="26" as="geometry"/>
                </mxCell>
                <mxCell id="40" value="image_related_likes" style="shape=table;startSize=30;container=1;collapsible=1;childLayout=tableLayout;fixedRows=1;rowLines=0;fontStyle=1;align=center;resizeLast=1;direction=east;rounded=1;" parent="1" vertex="1">
                    <mxGeometry x="-239" y="-2282" width="220" height="94" as="geometry"/>
                </mxCell>
                <mxCell id="41" value="" style="shape=tableRow;horizontal=0;startSize=0;swimlaneHead=0;swimlaneBody=0;fillColor=none;collapsible=0;dropTarget=0;points=[[0,0.5],[1,0.5]];portConstraint=eastwest;top=0;left=0;right=0;bottom=1;" parent="40" vertex="1">
                    <mxGeometry y="30" width="220" height="30" as="geometry"/>
                </mxCell>
                <mxCell id="42" value="PK" style="shape=partialRectangle;connectable=0;fillColor=none;top=0;left=0;bottom=0;right=0;fontStyle=1;overflow=hidden;" parent="41" vertex="1">
                    <mxGeometry width="30" height="30" as="geometry">
                        <mxRectangle width="30" height="30" as="alternateBounds"/>
                    </mxGeometry>
                </mxCell>
                <mxCell id="43" value="likerId" style="shape=partialRectangle;connectable=0;fillColor=none;top=0;left=0;bottom=0;right=0;align=left;spacingLeft=6;fontStyle=5;overflow=hidden;" parent="41" vertex="1">
                    <mxGeometry x="30" width="190" height="30" as="geometry">
                        <mxRectangle width="190" height="30" as="alternateBounds"/>
                    </mxGeometry>
                </mxCell>
                <mxCell id="44" value="" style="shape=tableRow;horizontal=0;startSize=0;swimlaneHead=0;swimlaneBody=0;fillColor=none;collapsible=0;dropTarget=0;points=[[0,0.5],[1,0.5]];portConstraint=eastwest;top=0;left=0;right=0;bottom=0;" parent="40" vertex="1">
                    <mxGeometry y="60" width="220" height="34" as="geometry"/>
                </mxCell>
                <mxCell id="45" value="FK" style="shape=partialRectangle;connectable=0;fillColor=none;top=0;left=0;bottom=0;right=0;editable=1;overflow=hidden;" parent="44" vertex="1">
                    <mxGeometry width="30" height="34" as="geometry">
                        <mxRectangle width="30" height="34" as="alternateBounds"/>
                    </mxGeometry>
                </mxCell>
                <mxCell id="46" value="image_relatedId" style="shape=partialRectangle;connectable=0;fillColor=none;top=0;left=0;bottom=0;right=0;align=left;spacingLeft=6;overflow=hidden;" parent="44" vertex="1">
                    <mxGeometry x="30" width="190" height="34" as="geometry">
                        <mxRectangle width="190" height="34" as="alternateBounds"/>
                    </mxGeometry>
                </mxCell>
                <mxCell id="47" value="" style="endArrow=classic;html=1;exitX=1;exitY=0.5;exitDx=0;exitDy=0;" parent="1" edge="1">
                    <mxGeometry width="50" height="50" relative="1" as="geometry">
                        <mxPoint x="-19" y="-2236.64" as="sourcePoint"/>
                        <mxPoint x="82" y="-2236.64" as="targetPoint"/>
                    </mxGeometry>
                </mxCell>
                <mxCell id="48" value="" style="endArrow=classic;html=1;exitX=1;exitY=0.5;exitDx=0;exitDy=0;" parent="1" edge="1">
                    <mxGeometry width="50" height="50" relative="1" as="geometry">
                        <mxPoint x="-19" y="-2204.64" as="sourcePoint"/>
                        <mxPoint x="76" y="-2203.64" as="targetPoint"/>
                    </mxGeometry>
                </mxCell>
                <mxCell id="49" value="to users_id" style="text;html=1;align=center;verticalAlign=middle;resizable=0;points=[];autosize=1;strokeColor=none;fillColor=none;" parent="1" vertex="1">
                    <mxGeometry x="82" y="-2247.82" width="77" height="26" as="geometry"/>
                </mxCell>
                <mxCell id="50" value="to images_related_id" style="text;html=1;align=center;verticalAlign=middle;resizable=0;points=[];autosize=1;strokeColor=none;fillColor=none;" parent="1" vertex="1">
                    <mxGeometry x="75" y="-2216" width="129" height="26" as="geometry"/>
                </mxCell>
                <mxCell id="51" value="prossess" style="shape=rhombus;perimeter=rhombusPerimeter;whiteSpace=wrap;html=1;align=center;rounded=1;rotation=0;" parent="1" vertex="1">
                    <mxGeometry x="-690" y="-2255" width="200" height="100" as="geometry"/>
                </mxCell>
                <mxCell id="52" value="" style="endArrow=none;html=1;entryX=1;entryY=0.5;entryDx=0;entryDy=0;exitX=0;exitY=0.5;exitDx=0;exitDy=0;startArrow=none;" parent="1" source="68" target="51" edge="1">
                    <mxGeometry width="50" height="50" relative="1" as="geometry">
                        <mxPoint x="-567" y="-2037" as="sourcePoint"/>
                        <mxPoint x="-517" y="-2087" as="targetPoint"/>
                    </mxGeometry>
                </mxCell>
                <mxCell id="53" value="" style="endArrow=none;html=1;entryX=0.5;entryY=1;entryDx=0;entryDy=0;exitX=0.5;exitY=0;exitDx=0;exitDy=0;startArrow=none;" parent="1" source="70" target="51" edge="1">
                    <mxGeometry width="50" height="50" relative="1" as="geometry">
                        <mxPoint x="-567" y="-2055" as="sourcePoint"/>
                        <mxPoint x="-517" y="-2087" as="targetPoint"/>
                    </mxGeometry>
                </mxCell>
                <mxCell id="54" value="product_likes" style="shape=table;startSize=30;container=1;collapsible=1;childLayout=tableLayout;fixedRows=1;rowLines=0;fontStyle=1;align=center;resizeLast=1;direction=east;rounded=1;" parent="1" vertex="1">
                    <mxGeometry x="-1824" y="-2580" width="220" height="94" as="geometry"/>
                </mxCell>
                <mxCell id="55" value="" style="shape=tableRow;horizontal=0;startSize=0;swimlaneHead=0;swimlaneBody=0;fillColor=none;collapsible=0;dropTarget=0;points=[[0,0.5],[1,0.5]];portConstraint=eastwest;top=0;left=0;right=0;bottom=1;" parent="54" vertex="1">
                    <mxGeometry y="30" width="220" height="30" as="geometry"/>
                </mxCell>
                <mxCell id="56" value="PK" style="shape=partialRectangle;connectable=0;fillColor=none;top=0;left=0;bottom=0;right=0;fontStyle=1;overflow=hidden;" parent="55" vertex="1">
                    <mxGeometry width="30" height="30" as="geometry">
                        <mxRectangle width="30" height="30" as="alternateBounds"/>
                    </mxGeometry>
                </mxCell>
                <mxCell id="57" value="likerId" style="shape=partialRectangle;connectable=0;fillColor=none;top=0;left=0;bottom=0;right=0;align=left;spacingLeft=6;fontStyle=5;overflow=hidden;" parent="55" vertex="1">
                    <mxGeometry x="30" width="190" height="30" as="geometry">
                        <mxRectangle width="190" height="30" as="alternateBounds"/>
                    </mxGeometry>
                </mxCell>
                <mxCell id="58" value="" style="shape=tableRow;horizontal=0;startSize=0;swimlaneHead=0;swimlaneBody=0;fillColor=none;collapsible=0;dropTarget=0;points=[[0,0.5],[1,0.5]];portConstraint=eastwest;top=0;left=0;right=0;bottom=0;" parent="54" vertex="1">
                    <mxGeometry y="60" width="220" height="34" as="geometry"/>
                </mxCell>
                <mxCell id="59" value="FK" style="shape=partialRectangle;connectable=0;fillColor=none;top=0;left=0;bottom=0;right=0;editable=1;overflow=hidden;" parent="58" vertex="1">
                    <mxGeometry width="30" height="34" as="geometry">
                        <mxRectangle width="30" height="34" as="alternateBounds"/>
                    </mxGeometry>
                </mxCell>
                <mxCell id="60" value="productId" style="shape=partialRectangle;connectable=0;fillColor=none;top=0;left=0;bottom=0;right=0;align=left;spacingLeft=6;overflow=hidden;" parent="58" vertex="1">
                    <mxGeometry x="30" width="190" height="34" as="geometry">
                        <mxRectangle width="190" height="34" as="alternateBounds"/>
                    </mxGeometry>
                </mxCell>
                <mxCell id="61" value="Possess" style="shape=rhombus;perimeter=rhombusPerimeter;whiteSpace=wrap;html=1;align=center;rounded=1;rotation=0;" parent="1" vertex="1">
                    <mxGeometry x="-1819" y="-2350" width="200" height="100" as="geometry"/>
                </mxCell>
                <mxCell id="62" value="" style="endArrow=none;html=1;exitX=0.5;exitY=0;exitDx=0;exitDy=0;entryX=0.475;entryY=1.076;entryDx=0;entryDy=0;entryPerimeter=0;startArrow=none;" parent="1" source="74" target="58" edge="1">
                    <mxGeometry width="50" height="50" relative="1" as="geometry">
                        <mxPoint x="-1836" y="-2346" as="sourcePoint"/>
                        <mxPoint x="-1786" y="-2396" as="targetPoint"/>
                    </mxGeometry>
                </mxCell>
                <mxCell id="63" value="" style="endArrow=classic;html=1;exitX=1;exitY=0.5;exitDx=0;exitDy=0;" parent="1" source="55" edge="1">
                    <mxGeometry width="50" height="50" relative="1" as="geometry">
                        <mxPoint x="-1749" y="-2531" as="sourcePoint"/>
                        <mxPoint x="-1503.0000000000005" y="-2535" as="targetPoint"/>
                    </mxGeometry>
                </mxCell>
                <mxCell id="64" value="" style="endArrow=classic;html=1;exitX=1;exitY=0.5;exitDx=0;exitDy=0;" parent="1" source="58" edge="1">
                    <mxGeometry width="50" height="50" relative="1" as="geometry">
                        <mxPoint x="-1591.5" y="-2502" as="sourcePoint"/>
                        <mxPoint x="-1509" y="-2502" as="targetPoint"/>
                    </mxGeometry>
                </mxCell>
                <mxCell id="65" value="to users_id" style="text;html=1;align=center;verticalAlign=middle;resizable=0;points=[];autosize=1;strokeColor=none;fillColor=none;" parent="1" vertex="1">
                    <mxGeometry x="-1503" y="-2546.1800000000003" width="77" height="26" as="geometry"/>
                </mxCell>
                <mxCell id="66" value="to product_id" style="text;html=1;align=center;verticalAlign=middle;resizable=0;points=[];autosize=1;strokeColor=none;fillColor=none;" parent="1" vertex="1">
                    <mxGeometry x="-1508" y="-2512.36" width="87" height="26" as="geometry"/>
                </mxCell>
                <mxCell id="67" value="" style="endArrow=none;html=1;exitX=1;exitY=1;exitDx=0;exitDy=0;entryX=0;entryY=0;entryDx=0;entryDy=0;startArrow=none;" parent="1" source="72" target="q-2chvohRWL-nbTxDOE--95" edge="1">
                    <mxGeometry width="50" height="50" relative="1" as="geometry">
                        <mxPoint x="-1703" y="-2385" as="sourcePoint"/>
                        <mxPoint x="-1653" y="-2435" as="targetPoint"/>
                    </mxGeometry>
                </mxCell>
                <mxCell id="69" value="" style="endArrow=none;html=1;entryX=1;entryY=0.5;entryDx=0;entryDy=0;exitX=0;exitY=0.5;exitDx=0;exitDy=0;" edge="1" parent="1" source="44" target="68">
                    <mxGeometry width="50" height="50" relative="1" as="geometry">
                        <mxPoint x="-239.00000000000045" y="-2205" as="sourcePoint"/>
                        <mxPoint x="-490" y="-2205" as="targetPoint"/>
                    </mxGeometry>
                </mxCell>
                <mxCell id="68" value="(1,1)" style="text;html=1;align=center;verticalAlign=middle;resizable=0;points=[];autosize=1;strokeColor=none;fillColor=none;strokeWidth=1;fontSize=20;" vertex="1" parent="1">
                    <mxGeometry x="-399" y="-2223" width="59" height="36" as="geometry"/>
                </mxCell>
                <mxCell id="71" value="" style="endArrow=none;html=1;entryX=0.5;entryY=1;entryDx=0;entryDy=0;exitX=0.5;exitY=0;exitDx=0;exitDy=0;" edge="1" parent="1" source="q-2chvohRWL-nbTxDOE--82" target="70">
                    <mxGeometry width="50" height="50" relative="1" as="geometry">
                        <mxPoint x="-590" y="-2052" as="sourcePoint"/>
                        <mxPoint x="-590" y="-2155" as="targetPoint"/>
                    </mxGeometry>
                </mxCell>
                <mxCell id="70" value="(0,*)" style="text;html=1;align=center;verticalAlign=middle;resizable=0;points=[];autosize=1;strokeColor=none;fillColor=none;strokeWidth=1;fontSize=20;" vertex="1" parent="1">
                    <mxGeometry x="-617" y="-2125" width="56" height="36" as="geometry"/>
                </mxCell>
                <mxCell id="73" value="" style="endArrow=none;html=1;exitX=1;exitY=1;exitDx=0;exitDy=0;entryX=0;entryY=0;entryDx=0;entryDy=0;" edge="1" parent="1" source="61" target="72">
                    <mxGeometry width="50" height="50" relative="1" as="geometry">
                        <mxPoint x="-1669" y="-2275" as="sourcePoint"/>
                        <mxPoint x="-1418" y="-2053" as="targetPoint"/>
                    </mxGeometry>
                </mxCell>
                <mxCell id="72" value="(0,*)" style="text;html=1;align=center;verticalAlign=middle;resizable=0;points=[];autosize=1;strokeColor=none;fillColor=none;strokeWidth=1;fontSize=20;" vertex="1" parent="1">
                    <mxGeometry x="-1564" y="-2182" width="56" height="36" as="geometry"/>
                </mxCell>
                <mxCell id="75" value="" style="endArrow=none;html=1;exitX=0.5;exitY=0;exitDx=0;exitDy=0;entryX=0.475;entryY=1.076;entryDx=0;entryDy=0;entryPerimeter=0;" edge="1" parent="1" source="61" target="74">
                    <mxGeometry width="50" height="50" relative="1" as="geometry">
                        <mxPoint x="-1719" y="-2350" as="sourcePoint"/>
                        <mxPoint x="-1719.5" y="-2483.416" as="targetPoint"/>
                    </mxGeometry>
                </mxCell>
                <mxCell id="74" value="(1,1)" style="text;html=1;align=center;verticalAlign=middle;resizable=0;points=[];autosize=1;strokeColor=none;fillColor=none;strokeWidth=1;fontSize=20;" vertex="1" parent="1">
                    <mxGeometry x="-1748" y="-2441" width="59" height="36" as="geometry"/>
                </mxCell>
                <mxCell id="77" value="" style="endArrow=none;html=1;exitX=1;exitY=0.5;exitDx=0;exitDy=0;entryX=-0.083;entryY=0.519;entryDx=0;entryDy=0;entryPerimeter=0;" edge="1" parent="1" source="16" target="76">
                    <mxGeometry width="50" height="50" relative="1" as="geometry">
                        <mxPoint x="-738.0000000000005" y="-1785" as="sourcePoint"/>
                        <mxPoint x="-452.02" y="-1782.5439999999999" as="targetPoint"/>
                    </mxGeometry>
                </mxCell>
                <mxCell id="76" value="(1,1)" style="text;html=1;align=center;verticalAlign=middle;resizable=0;points=[];autosize=1;strokeColor=none;fillColor=none;strokeWidth=1;fontSize=20;" vertex="1" parent="1">
                    <mxGeometry x="-624" y="-1803" width="59" height="36" as="geometry"/>
                </mxCell>
                <mxCell id="79" value="" style="endArrow=none;html=1;exitX=0.5;exitY=0;exitDx=0;exitDy=0;entryX=0.5;entryY=1;entryDx=0;entryDy=0;" edge="1" parent="1" source="q-2chvohRWL-nbTxDOE--29" target="78">
                    <mxGeometry width="50" height="50" relative="1" as="geometry">
                        <mxPoint x="-840" y="-1615" as="sourcePoint"/>
                        <mxPoint x="-838" y="-1735" as="targetPoint"/>
                    </mxGeometry>
                </mxCell>
                <mxCell id="78" value="(0,*)" style="text;html=1;align=center;verticalAlign=middle;resizable=0;points=[];autosize=1;strokeColor=none;fillColor=none;strokeWidth=1;fontSize=20;" vertex="1" parent="1">
                    <mxGeometry x="-866" y="-1700" width="56" height="36" as="geometry"/>
                </mxCell>
                <mxCell id="81" value="" style="endArrow=none;html=1;exitX=0.5;exitY=0;exitDx=0;exitDy=0;entryX=0.5;entryY=1;entryDx=0;entryDy=0;" edge="1" parent="1" source="26" target="80">
                    <mxGeometry width="50" height="50" relative="1" as="geometry">
                        <mxPoint x="-162.99999999999955" y="-350" as="sourcePoint"/>
                        <mxPoint x="-162.99999999999955" y="-562" as="targetPoint"/>
                    </mxGeometry>
                </mxCell>
                <mxCell id="80" value="(0,*)" style="text;html=1;align=center;verticalAlign=middle;resizable=0;points=[];autosize=1;strokeColor=none;fillColor=none;strokeWidth=1;fontSize=20;" vertex="1" parent="1">
                    <mxGeometry x="-189" y="-484" width="56" height="36" as="geometry"/>
                </mxCell>
                <mxCell id="83" value="" style="endArrow=none;html=1;entryX=0.5;entryY=0;entryDx=0;entryDy=0;" edge="1" parent="1" target="82">
                    <mxGeometry width="50" height="50" relative="1" as="geometry">
                        <mxPoint x="-162.99999999999955" y="-812" as="sourcePoint"/>
                        <mxPoint x="-162.99999999999955" y="-662" as="targetPoint"/>
                    </mxGeometry>
                </mxCell>
                <mxCell id="82" value="(1,1)" style="text;html=1;align=center;verticalAlign=middle;resizable=0;points=[];autosize=1;strokeColor=none;fillColor=none;strokeWidth=1;fontSize=20;" vertex="1" parent="1">
                    <mxGeometry x="-193" y="-746" width="59" height="36" as="geometry"/>
                </mxCell>
            </root>
        </mxGraphModel>
    </diagram>
</mxfile>